<svg xmlns="http://www.w3.org/2000/svg"
  viewBox="0 0 2048 2080"
  width="2048" height="2080">
  <g fill="black" stroke="none" stroke-width="1.0" fill-rule="nonzero">
    <path d="M 1313.0 1573.0 L 1313.0 1585.0 L 1314.0 1586.0 L 1315.0 1586.0 L 1316.0 1587.0 L 1325.0 1587.0 L 1326.0 1588.0 L 1327.0 1588.0 L 1328.0 1589.0 L 1330.0 1589.0 L 1331.0 1590.0 L 1334.0 1590.0 L 1335.0 1591.0 L 1339.0 1591.0 L 1340.0 1590.0 L 1340.0 1579.0 L 1341.0 1578.0 L 1341.0 1569.0 L 1342.0 1568.0 L 1342.0 1567.0 L 1341.0 1566.0 L 1340.0 1566.0 L 1339.0 1565.0 L 1335.0 1565.0 L 1334.0 1564.0 L 1331.0 1564.0 L 1329.0 1566.0 L 1329.0 1567.0 L 1327.0 1569.0 L 1326.0 1569.0 L 1325.0 1570.0 L 1322.0 1570.0 L 1321.0 1571.0 L 1318.0 1571.0 L 1317.0 1572.0 L 1315.0 1572.0 L 1314.0 1573.0 Z" /><path d="M 1008.0 1563.0 L 1007.0 1564.0 L 1007.0 1706.0 L 1004.0 1709.0 L 997.0 1709.0 L 997.0 1717.0 L 996.0 1718.0 L 997.0 1723.0 L 996.0 1724.0 L 997.0 1725.0 L 1067.0 1725.0 L 1067.0 1717.0 L 1066.0 1716.0 L 1066.0 1711.0 L 1067.0 1710.0 L 1066.0 1709.0 L 1029.0 1709.0 L 1026.0 1702.0 L 1015.0 1702.0 L 1013.0 1700.0 L 1013.0 1565.0 L 1011.0 1563.0 Z" /><path d="M 775.0 1511.0 L 774.0 1512.0 L 774.0 1706.0 L 772.0 1708.0 L 759.0 1708.0 L 758.0 1709.0 L 759.0 1712.0 L 759.0 1725.0 L 838.0 1725.0 L 839.0 1724.0 L 838.0 1723.0 L 839.0 1719.0 L 837.0 1715.0 L 838.0 1709.0 L 807.0 1709.0 L 805.0 1707.0 L 805.0 1693.0 L 804.0 1692.0 L 782.0 1692.0 L 779.0 1690.0 L 779.0 1543.0 L 781.0 1541.0 L 785.0 1541.0 L 787.0 1538.0 L 785.0 1535.0 L 781.0 1535.0 L 779.0 1533.0 L 779.0 1513.0 Z" /><path d="M 545.0 1443.0 L 545.0 1510.0 L 540.0 1516.0 L 534.0 1517.0 L 534.0 1532.0 L 664.0 1532.0 L 664.0 1724.0 L 719.0 1724.0 L 719.0 1708.0 L 694.0 1708.0 L 692.0 1700.0 L 682.0 1696.0 L 682.0 1519.0 L 669.0 1515.0 L 669.0 1480.0 L 682.0 1476.0 L 682.0 1442.0 L 772.0 1442.0 L 772.0 1474.0 L 777.0 1476.0 L 777.0 1437.0 L 760.0 1435.0 L 760.0 1411.0 L 755.0 1412.0 L 753.0 1437.0 L 684.0 1437.0 L 681.0 1433.0 L 681.0 1411.0 L 648.0 1411.0 L 644.0 1451.0 L 598.0 1451.0 L 595.0 1443.0 Z" /><path d="M 935.0 1409.0 L 927.0 1410.0 L 927.0 1435.0 L 924.0 1438.0 L 840.0 1438.0 L 840.0 1454.0 L 924.0 1454.0 L 926.0 1456.0 L 926.0 1704.0 L 923.0 1709.0 L 886.0 1709.0 L 886.0 1725.0 L 960.0 1725.0 L 960.0 1709.0 L 939.0 1707.0 L 939.0 1521.0 L 941.0 1519.0 L 1005.0 1519.0 L 1007.0 1528.0 L 1010.0 1529.0 L 1013.0 1520.0 L 1020.0 1517.0 L 1020.0 1501.0 L 1024.0 1498.0 L 1024.0 1440.0 L 1007.0 1440.0 L 1007.0 1448.0 L 1003.0 1452.0 L 940.0 1452.0 L 937.0 1449.0 L 937.0 1410.0 Z" /><path d="M 497.0 1380.0 L 482.0 1380.0 L 481.0 1383.0 L 481.0 1508.0 L 479.0 1516.0 L 401.0 1516.0 L 352.0 1403.0 L 335.0 1403.0 L 339.0 1421.0 L 391.0 1532.0 L 492.0 1532.0 L 494.0 1531.0 L 494.0 1518.0 L 493.0 1516.0 L 488.0 1516.0 L 486.0 1513.0 L 486.0 1386.0 L 496.0 1385.0 L 498.0 1383.0 Z" /><path d="M 307.0 1308.0 L 312.0 1325.0 L 320.0 1322.0 L 326.0 1322.0 L 328.0 1320.0 L 542.0 1320.0 L 544.0 1322.0 L 544.0 1346.0 L 552.0 1350.0 L 552.0 1378.0 L 549.0 1380.0 L 536.0 1380.0 L 535.0 1384.0 L 555.0 1384.0 L 557.0 1383.0 L 557.0 1309.0 L 555.0 1307.0 L 552.0 1308.0 L 552.0 1312.0 L 550.0 1314.0 L 541.0 1315.0 L 326.0 1315.0 L 321.0 1306.0 L 318.0 1308.0 Z" /><path d="M 287.0 1199.0 L 286.0 1200.0 L 284.0 1200.0 L 284.0 1206.0 L 285.0 1207.0 L 285.0 1212.0 L 286.0 1213.0 L 286.0 1218.0 L 287.0 1219.0 L 287.0 1223.0 L 288.0 1224.0 L 288.0 1226.0 L 289.0 1227.0 L 289.0 1232.0 L 290.0 1233.0 L 290.0 1237.0 L 291.0 1238.0 L 291.0 1241.0 L 292.0 1242.0 L 292.0 1245.0 L 293.0 1246.0 L 293.0 1251.0 L 294.0 1252.0 L 294.0 1256.0 L 295.0 1257.0 L 295.0 1260.0 L 296.0 1261.0 L 296.0 1264.0 L 297.0 1265.0 L 297.0 1269.0 L 298.0 1270.0 L 298.0 1274.0 L 299.0 1275.0 L 299.0 1276.0 L 300.0 1276.0 L 301.0 1275.0 L 304.0 1275.0 L 306.0 1273.0 L 309.0 1273.0 L 310.0 1272.0 L 312.0 1272.0 L 313.0 1273.0 L 313.0 1267.0 L 312.0 1266.0 L 312.0 1263.0 L 311.0 1262.0 L 311.0 1258.0 L 310.0 1257.0 L 310.0 1255.0 L 313.0 1252.0 L 318.0 1252.0 L 319.0 1251.0 L 322.0 1251.0 L 323.0 1250.0 L 325.0 1250.0 L 328.0 1248.0 L 328.0 1241.0 L 327.0 1240.0 L 327.0 1236.0 L 326.0 1235.0 L 326.0 1230.0 L 325.0 1229.0 L 325.0 1226.0 L 323.0 1223.0 L 315.0 1223.0 L 314.0 1224.0 L 304.0 1224.0 L 302.0 1222.0 L 302.0 1218.0 L 301.0 1217.0 L 301.0 1212.0 L 300.0 1211.0 L 300.0 1206.0 L 299.0 1205.0 L 299.0 1200.0 L 298.0 1199.0 L 298.0 1198.0 L 297.0 1198.0 L 296.0 1199.0 Z" /><path d="M 757.0 1189.0 L 757.0 1190.0 L 756.0 1191.0 L 756.0 1194.0 L 754.0 1196.0 L 753.0 1196.0 L 752.0 1197.0 L 752.0 1198.0 L 751.0 1199.0 L 751.0 1224.0 L 752.0 1225.0 L 797.0 1225.0 L 798.0 1224.0 L 798.0 1197.0 L 797.0 1196.0 L 795.0 1196.0 L 794.0 1195.0 L 793.0 1195.0 L 792.0 1194.0 L 792.0 1190.0 L 790.0 1188.0 L 758.0 1188.0 Z" /><path d="M 1661.0 1048.0 L 1660.0 1049.0 L 1656.0 1049.0 L 1656.0 1051.0 L 1655.0 1052.0 L 1655.0 1118.0 L 1656.0 1119.0 L 1656.0 1120.0 L 1657.0 1121.0 L 1671.0 1121.0 L 1672.0 1120.0 L 1672.0 1050.0 L 1670.0 1048.0 Z" /><path d="M 569.0 902.0 L 569.0 980.0 L 583.0 980.0 L 585.0 985.0 L 550.0 985.0 L 547.0 1007.0 L 603.0 1007.0 L 603.0 1307.0 L 661.0 1307.0 L 661.0 1362.0 L 681.0 1362.0 L 681.0 1333.0 L 753.0 1333.0 L 753.0 1360.0 L 760.0 1361.0 L 760.0 1302.0 L 877.0 1302.0 L 877.0 1296.0 L 616.0 1296.0 L 616.0 1243.0 L 636.0 1239.0 L 636.0 1214.0 L 615.0 1210.0 L 615.0 991.0 L 618.0 977.0 L 573.0 977.0 L 573.0 902.0 Z" /><path d="M 511.0 795.0 L 494.0 795.0 L 493.0 796.0 L 493.0 922.0 L 495.0 924.0 L 497.0 924.0 L 498.0 923.0 L 498.0 869.0 L 500.0 866.0 L 512.0 866.0 L 512.0 865.0 L 513.0 864.0 L 513.0 843.0 L 512.0 842.0 L 512.0 796.0 Z" /><path d="M 287.0 809.0 L 287.0 1006.0 L 268.0 1009.0 L 268.0 1126.0 L 289.0 1122.0 L 289.0 1083.0 L 273.0 1078.0 L 273.0 1038.0 L 287.0 1034.0 L 289.0 1027.0 L 456.0 1027.0 L 460.0 1013.0 L 492.0 1013.0 L 492.0 1064.0 L 552.0 1064.0 L 552.0 1270.0 L 552.0 1060.0 L 499.0 1060.0 L 499.0 1012.0 L 511.0 1009.0 L 511.0 977.0 L 499.0 974.0 L 498.0 962.0 L 493.0 964.0 L 491.0 981.0 L 313.0 981.0 L 313.0 872.0 L 316.0 861.0 L 446.0 861.0 L 453.0 907.0 L 453.0 791.0 L 444.0 789.0 L 444.0 848.0 L 319.0 848.0 L 319.0 815.0 Z" /><path d="M 584.0 736.0 L 688.0 736.0 L 688.0 850.0 L 599.0 850.0 L 592.0 779.0 L 568.0 786.0 L 568.0 866.0 L 692.0 866.0 L 692.0 979.0 L 662.0 979.0 L 662.0 1103.0 L 724.0 1103.0 L 724.0 1166.0 L 852.0 1166.0 L 852.0 1220.0 L 878.0 1220.0 L 859.0 1213.0 L 859.0 1161.0 L 729.0 1161.0 L 729.0 1067.0 L 927.0 1067.0 L 927.0 1367.0 L 957.0 1336.0 L 937.0 1328.0 L 953.0 1194.0 L 1022.0 1194.0 L 1022.0 1314.0 L 991.0 1336.0 L 1027.0 1336.0 L 1042.0 1189.0 L 937.0 1172.0 L 937.0 1070.0 L 1033.0 1070.0 L 1033.0 964.0 L 1485.0 964.0 L 1485.0 1048.0 L 1118.0 1048.0 L 1142.0 1070.0 L 1142.0 1707.0 L 1116.0 1725.0 L 1807.0 1725.0 L 1807.0 1671.0 L 1792.0 1710.0 L 1152.0 1710.0 L 1152.0 1072.0 L 1557.0 1072.0 L 1557.0 1048.0 L 1500.0 1048.0 L 1500.0 966.0 L 1010.0 966.0 L 1010.0 1048.0 L 684.0 1048.0 L 684.0 1010.0 L 714.0 1007.0 L 714.0 746.0 L 745.0 725.0 Z" /><path d="M 469.0 671.0 L 466.0 668.0 L 450.0 668.0 L 447.0 658.0 L 444.0 659.0 L 444.0 666.0 L 439.0 670.0 L 439.0 674.0 L 443.0 676.0 L 443.0 736.0 L 441.0 739.0 L 313.0 739.0 L 309.0 738.0 L 309.0 711.0 L 299.0 711.0 L 296.0 707.0 L 287.0 706.0 L 287.0 793.0 L 295.0 792.0 L 298.0 789.0 L 317.0 789.0 L 317.0 754.0 L 319.0 752.0 L 441.0 752.0 L 445.0 757.0 L 448.0 757.0 L 452.0 754.0 L 468.0 754.0 Z" /><path d="M 405.0 669.0 L 401.0 667.0 L 400.0 665.0 L 400.0 658.0 L 399.0 657.0 L 396.0 658.0 L 395.0 661.0 L 396.0 662.0 L 396.0 666.0 L 394.0 668.0 L 222.0 668.0 L 219.0 666.0 L 219.0 662.0 L 218.0 661.0 L 213.0 661.0 L 211.0 660.0 L 210.0 661.0 L 210.0 680.0 L 212.0 681.0 L 284.0 681.0 L 288.0 686.0 L 289.0 685.0 L 294.0 685.0 L 296.0 686.0 L 297.0 683.0 L 300.0 681.0 L 307.0 681.0 L 308.0 680.0 L 308.0 676.0 L 310.0 674.0 L 404.0 674.0 L 405.0 673.0 Z" /><path d="M 506.0 555.0 L 504.0 556.0 L 504.0 559.0 L 508.0 560.0 L 510.0 562.0 L 510.0 727.0 L 511.0 728.0 L 527.0 728.0 L 532.0 730.0 L 532.0 738.0 L 533.0 740.0 L 535.0 741.0 L 546.0 740.0 L 546.0 735.0 L 542.0 735.0 L 539.0 732.0 L 540.0 729.0 L 540.0 724.0 L 539.0 723.0 L 540.0 719.0 L 540.0 675.0 L 539.0 674.0 L 539.0 667.0 L 540.0 666.0 L 540.0 651.0 L 539.0 650.0 L 540.0 646.0 L 540.0 605.0 L 539.0 604.0 L 539.0 599.0 L 543.0 595.0 L 579.0 595.0 L 579.0 592.0 L 577.0 590.0 L 527.0 590.0 L 526.0 589.0 L 526.0 557.0 L 524.0 555.0 Z" /><path d="M 466.0 557.0 L 463.0 555.0 L 458.0 555.0 L 455.0 557.0 L 455.0 588.0 L 453.0 590.0 L 315.0 590.0 L 313.0 595.0 L 310.0 597.0 L 266.0 597.0 L 263.0 595.0 L 245.0 595.0 L 242.0 593.0 L 242.0 579.0 L 220.0 573.0 L 210.0 572.0 L 210.0 629.0 L 219.0 629.0 L 220.0 624.0 L 224.0 622.0 L 330.0 622.0 L 330.0 599.0 L 333.0 597.0 L 380.0 597.0 L 382.0 599.0 L 383.0 611.0 L 418.0 611.0 L 419.0 600.0 L 422.0 597.0 L 453.0 597.0 L 455.0 599.0 L 455.0 606.0 L 459.0 608.0 L 461.0 606.0 L 461.0 563.0 L 466.0 559.0 Z" /><path d="M 210.0 520.0 L 210.0 541.0 L 211.0 542.0 L 212.0 542.0 L 213.0 541.0 L 218.0 541.0 L 219.0 542.0 L 220.0 541.0 L 221.0 541.0 L 222.0 540.0 L 225.0 540.0 L 226.0 539.0 L 229.0 539.0 L 230.0 538.0 L 233.0 538.0 L 234.0 537.0 L 237.0 537.0 L 238.0 536.0 L 240.0 536.0 L 242.0 534.0 L 242.0 530.0 L 241.0 529.0 L 241.0 528.0 L 240.0 528.0 L 239.0 527.0 L 238.0 527.0 L 237.0 526.0 L 234.0 526.0 L 233.0 525.0 L 231.0 525.0 L 230.0 524.0 L 228.0 524.0 L 227.0 523.0 L 225.0 523.0 L 224.0 522.0 L 223.0 522.0 L 222.0 521.0 L 221.0 521.0 L 220.0 520.0 L 218.0 520.0 L 217.0 521.0 L 213.0 521.0 L 212.0 520.0 Z" /><path d="M 720.0 437.0 L 716.0 439.0 L 710.0 438.0 L 706.0 441.0 L 693.0 444.0 L 688.0 447.0 L 688.0 588.0 L 685.0 590.0 L 611.0 590.0 L 609.0 591.0 L 609.0 595.0 L 693.0 595.0 L 696.0 599.0 L 695.0 603.0 L 696.0 615.0 L 735.0 615.0 L 739.0 618.0 L 742.0 614.0 L 746.0 613.0 L 732.0 595.0 L 717.0 595.0 L 714.0 589.0 L 710.0 589.0 L 707.0 587.0 L 707.0 562.0 L 713.0 561.0 L 715.0 559.0 L 716.0 552.0 L 730.0 552.0 L 730.0 509.0 L 727.0 507.0 L 723.0 507.0 L 720.0 502.0 L 720.0 482.0 Z" /><path d="M 221.0 431.0 L 219.0 431.0 L 218.0 432.0 L 212.0 432.0 L 211.0 433.0 L 211.0 484.0 L 210.0 485.0 L 210.0 487.0 L 211.0 488.0 L 211.0 490.0 L 220.0 490.0 L 221.0 489.0 L 223.0 489.0 L 224.0 488.0 L 227.0 488.0 L 228.0 487.0 L 231.0 487.0 L 232.0 486.0 L 235.0 486.0 L 236.0 485.0 L 238.0 485.0 L 239.0 484.0 L 241.0 484.0 L 242.0 483.0 L 242.0 476.0 L 238.0 472.0 L 238.0 454.0 L 242.0 450.0 L 242.0 441.0 L 240.0 439.0 L 238.0 439.0 L 237.0 438.0 L 235.0 438.0 L 234.0 437.0 L 233.0 437.0 L 232.0 436.0 L 230.0 436.0 L 229.0 435.0 L 227.0 435.0 L 226.0 434.0 L 225.0 434.0 L 224.0 433.0 L 223.0 433.0 Z" /><path d="M 664.0 306.0 L 667.0 310.0 L 667.0 316.0 L 669.0 318.0 L 669.0 321.0 L 670.0 322.0 L 670.0 324.0 L 671.0 325.0 L 671.0 327.0 L 673.0 331.0 L 673.0 335.0 L 674.0 337.0 L 687.0 337.0 L 689.0 339.0 L 689.0 362.0 L 688.0 363.0 L 688.0 396.0 L 691.0 398.0 L 696.0 399.0 L 699.0 401.0 L 701.0 401.0 L 702.0 402.0 L 705.0 402.0 L 711.0 406.0 L 719.0 406.0 L 720.0 407.0 L 721.0 405.0 L 721.0 307.0 L 720.0 306.0 L 688.0 306.0 L 687.0 305.0 L 666.0 305.0 Z" /><path d="M 588.0 306.0 L 588.0 307.0 L 590.0 309.0 L 590.0 310.0 L 591.0 311.0 L 591.0 316.0 L 593.0 318.0 L 593.0 320.0 L 594.0 321.0 L 594.0 323.0 L 595.0 324.0 L 595.0 326.0 L 596.0 327.0 L 596.0 330.0 L 597.0 331.0 L 597.0 334.0 L 598.0 335.0 L 598.0 336.0 L 600.0 336.0 L 601.0 337.0 L 603.0 337.0 L 604.0 336.0 L 607.0 336.0 L 608.0 337.0 L 625.0 337.0 L 626.0 336.0 L 627.0 336.0 L 628.0 335.0 L 628.0 333.0 L 629.0 332.0 L 629.0 330.0 L 630.0 329.0 L 630.0 326.0 L 631.0 325.0 L 631.0 322.0 L 632.0 321.0 L 632.0 318.0 L 633.0 317.0 L 633.0 316.0 L 634.0 315.0 L 634.0 308.0 L 635.0 307.0 L 635.0 306.0 L 634.0 306.0 L 633.0 305.0 L 590.0 305.0 L 589.0 306.0 Z" /><path d="M 506.0 306.0 L 506.0 308.0 L 507.0 309.0 L 507.0 315.0 L 508.0 316.0 L 508.0 317.0 L 509.0 318.0 L 509.0 322.0 L 510.0 323.0 L 510.0 335.0 L 511.0 336.0 L 511.0 337.0 L 549.0 337.0 L 550.0 336.0 L 551.0 336.0 L 551.0 334.0 L 552.0 333.0 L 552.0 331.0 L 553.0 330.0 L 553.0 328.0 L 554.0 327.0 L 554.0 324.0 L 555.0 323.0 L 555.0 321.0 L 556.0 320.0 L 556.0 318.0 L 558.0 316.0 L 558.0 308.0 L 559.0 307.0 L 559.0 306.0 L 557.0 306.0 L 556.0 305.0 L 507.0 305.0 Z" /><path d="M 377.0 305.0 L 376.0 307.0 L 378.0 309.0 L 378.0 316.0 L 380.0 319.0 L 380.0 323.0 L 383.0 330.0 L 384.0 336.0 L 385.0 337.0 L 401.0 337.0 L 402.0 338.0 L 402.0 424.0 L 401.0 425.0 L 401.0 430.0 L 403.0 433.0 L 411.0 433.0 L 412.0 432.0 L 412.0 424.0 L 407.0 421.0 L 407.0 375.0 L 408.0 374.0 L 408.0 364.0 L 407.0 363.0 L 407.0 360.0 L 408.0 359.0 L 408.0 357.0 L 407.0 356.0 L 407.0 340.0 L 409.0 337.0 L 420.0 337.0 L 422.0 336.0 L 422.0 334.0 L 423.0 333.0 L 423.0 327.0 L 424.0 326.0 L 424.0 322.0 L 425.0 321.0 L 425.0 318.0 L 427.0 316.0 L 427.0 306.0 L 426.0 305.0 Z" /><path d="M 298.0 306.0 L 300.0 308.0 L 300.0 309.0 L 301.0 310.0 L 301.0 313.0 L 300.0 314.0 L 300.0 315.0 L 303.0 318.0 L 303.0 320.0 L 304.0 321.0 L 304.0 323.0 L 305.0 324.0 L 305.0 326.0 L 306.0 327.0 L 306.0 329.0 L 307.0 330.0 L 307.0 333.0 L 308.0 334.0 L 308.0 335.0 L 309.0 336.0 L 319.0 336.0 L 320.0 337.0 L 324.0 337.0 L 325.0 336.0 L 327.0 336.0 L 328.0 337.0 L 335.0 337.0 L 338.0 334.0 L 338.0 333.0 L 339.0 332.0 L 339.0 330.0 L 340.0 329.0 L 340.0 326.0 L 341.0 325.0 L 341.0 322.0 L 342.0 321.0 L 342.0 319.0 L 343.0 318.0 L 343.0 317.0 L 345.0 315.0 L 345.0 314.0 L 344.0 313.0 L 344.0 308.0 L 346.0 306.0 L 345.0 306.0 L 344.0 305.0 L 332.0 305.0 L 331.0 306.0 L 318.0 306.0 L 317.0 305.0 L 316.0 306.0 L 314.0 306.0 L 313.0 305.0 L 300.0 305.0 L 299.0 306.0 Z" /><path d="M 269.0 306.0 L 267.0 306.0 L 266.0 305.0 L 257.0 305.0 L 256.0 306.0 L 224.0 306.0 L 223.0 305.0 L 217.0 305.0 L 216.0 306.0 L 214.0 306.0 L 213.0 307.0 L 213.0 323.0 L 212.0 324.0 L 212.0 401.0 L 213.0 400.0 L 219.0 400.0 L 220.0 401.0 L 221.0 401.0 L 221.0 400.0 L 223.0 398.0 L 225.0 398.0 L 226.0 397.0 L 228.0 397.0 L 229.0 396.0 L 232.0 396.0 L 235.0 394.0 L 238.0 394.0 L 239.0 393.0 L 242.0 393.0 L 243.0 392.0 L 243.0 377.0 L 244.0 376.0 L 244.0 339.0 L 246.0 337.0 L 259.0 337.0 L 260.0 336.0 L 261.0 336.0 L 261.0 335.0 L 262.0 334.0 L 262.0 332.0 L 263.0 331.0 L 263.0 329.0 L 264.0 328.0 L 265.0 321.0 L 266.0 320.0 L 266.0 318.0 L 268.0 315.0 L 268.0 308.0 L 269.0 307.0 Z" />
  </g>
</svg>