<?xml version="1.0" encoding="UTF-8"?>
<svg xmlns="http://www.w3.org/2000/svg"
     xmlns:xlink="http://www.w3.org/1999/xlink"
     viewBox="0 0 2304.000000 1856.000000"
     width="2304" height="1856"
     preserveAspectRatio="xMidYMid meet">

  <title>BIMIT Floor Plan - Model X (Layered)</title>
  <desc>Architectural floor plan with AI-generated layers (Gemini nano-banana-pro-preview)</desc>

  <defs>
    <style type="text/css">
      .layer { stroke: none; }
      .walls { fill: #1a1a1a; }
      .doors { fill: #2563eb; }
      .windows { fill: #06b6d4; }
      .stairs { fill: #7c3aed; }
      .furniture { fill: #84cc16; }

      /* Add class="monochrome" to SVG root for traditional black view */
      .monochrome .layer { fill: #1a1a1a; stroke: none; }
    </style>
  </defs>

  <!-- Background -->
  <rect class="background" fill="#ffffff" width="100%" height="100%"/>

  <!-- Floor Plan Layers -->
  <g transform="translate(0.000000,1856.000000) scale(0.100000,-0.100000)">
    <g id="walls" class="layer walls" fill="#1a1a1a" stroke="none">
      <path d="M10070 13621 l-95 -6 -5 -890 -5 -890 -215 0 -215 0 -5 890 -5 890
-1092 3 -1093 2 -2 -947 -3 -948 -1235 -5 -1235 -5 -3 -759 -2 -759 11 -13 11
-14 517 -2 516 -3 5 -1145 5 -1145 1040 0 1040 0 0 90 0 90 -775 5 -775 5 -3
68 -3 67 -13 0 c-7 0 -33 -19 -58 -42 l-46 -43 -4 -25 -3 -25 -110 0 -110 0 0
495 0 495 115 0 115 0 5 -35 5 -35 30 -10 c17 -5 35 -16 41 -24 l11 -14 11 7
12 7 0 185 0 184 -14 0 c-7 0 -24 -10 -38 -22 -14 -13 -34 -28 -44 -34 l-19
-11 -5 -34 -5 -34 -110 0 -110 0 0 490 0 490 115 0 115 0 3 -23 4 -23 41 -30
c22 -16 45 -28 51 -26 l11 4 5 49 5 49 40 5 40 5 0 90 0 90 -740 5 -740 5 0
585 0 585 1113 3 1112 2 -2 -587 -3 -588 -85 -5 -85 -5 0 -85 0 -85 35 -5 35
-5 5 -535 5 -535 165 0 165 0 5 2165 5 2165 905 0 905 0 5 -890 5 -890 405 0
405 0 5 890 5 890 55 5 55 5 0 90 0 90 -55 1 c-30 0 -98 -2 -150 -5z"/>
<path d="M11120 13620 l-125 -5 0 -85 0 -85 350 -5 350 -5 5 -420 5 -420 1615
-5 1615 -5 5 -1410 5 -1410 90 0 90 0 5 90 5 90 600 5 600 5 0 85 0 85 -605 5
-605 5 0 725 0 725 625 5 625 5 0 85 0 85 -625 5 -625 5 -2 795 c-2 437 -1
805 2 818 l5 22 1433 -2 1432 -3 0 -410 0 -410 -435 -5 -435 -5 -5 -400 -5
-400 -50 -5 -50 -5 -3 -74 -3 -74 11 -11 11 -11 482 -5 482 -5 0 -725 0 -725
-395 -5 -395 -5 0 -85 0 -85 395 -5 395 -5 0 -2070 0 -2070 -1185 0 -1185 0
-5 345 -5 345 -245 5 -245 5 -5 1280 -5 1280 -80 -3 c-44 -2 -83 -7 -88 -11
l-7 -7 2 -1360 3 -1359 240 -5 240 -5 3 -287 2 -286 -60 -37 c-33 -20 -62 -40
-65 -45 l-6 -9 24 -38 c13 -21 32 -44 41 -52 9 -7 16 -19 16 -27 0 -7 5 -16
11 -19 l10 -7 52 34 c29 19 63 41 77 49 l25 14 1315 5 1315 5 3 3073 2 3072
-27 11 -28 11 -401 -5 -402 -5 -11 7 -11 7 2 305 3 304 435 5 435 5 0 595 0
595 -1620 0 -1620 0 -5 -410 -5 -410 -1522 -3 c-838 -1 -1524 -1 -1525 0 -1 2
-5 194 -8 428 l-5 425 -315 0 c-173 0 -371 -2 -440 -5z"/>
<path d="M8707 8054 c-4 -4 -7 -42 -7 -84 l0 -78 13 -10 13 -11 79 -3 80 -3 5
-1125 5 -1125 1510 0 1510 0 5 295 5 295 134 3 134 3 10 -10 9 -9 7 -303 6
-303 60 -43 c33 -23 67 -42 75 -43 l16 0 36 48 c19 26 41 57 49 69 l13 21 -14
17 c-8 9 -24 21 -37 26 l-23 9 0 339 0 339 -14 11 -13 11 -319 -2 -319 -3 -5
-290 -5 -290 -1325 0 -1325 0 -5 1125 -5 1125 -176 3 -175 2 -7 -6z"/>
<path d="M14501 5157 l-34 -21 -66 -5 -66 -6 0 -90 0 -90 73 -3 73 -3 59 32
c32 17 67 40 77 51 l17 19 -34 67 -35 67 -15 2 c-8 1 -30 -8 -49 -20z"/>
<path d="M13216 5106 c-20 -35 -36 -71 -36 -79 l0 -16 48 -33 47 -33 90 0 90
0 0 90 0 90 -70 5 -71 6 -24 17 c-34 24 -34 24 -74 -47z"/>
    </g>

    <g id="doors" class="layer doors" fill="#2563eb" stroke="none">
      <path d="M10283 13503 c-7 -3 -13 -14 -13 -26 -1 -12 -7 -33 -15 -47 -12 -20
-14 -87 -15 -347 0 -310 1 -324 20 -343 41 -41 168 -21 317 51 214 103 370
287 418 494 9 39 21 87 26 108 9 34 8 41 -11 57 -33 28 -49 16 -48 -38 2 -265
-271 -579 -547 -632 -129 -25 -120 -47 -123 298 -2 254 0 307 13 332 28 54 16
106 -22 93z"/>
<path d="M16862 12410 c-256 -67 -468 -286 -517 -535 -16 -79 -16 -80 5 -97
31 -25 52 -13 44 26 -17 94 65 266 186 386 97 98 169 140 286 170 137 35 124
62 124 -251 0 -180 -4 -285 -12 -311 -12 -42 -1 -62 28 -51 28 11 34 70 34
359 0 360 5 352 -178 304z"/>
<path d="M6955 10891 c-217 -62 -400 -249 -446 -457 -12 -51 -11 -58 5 -70 25
-18 45 -7 44 25 -2 75 75 225 162 311 73 73 154 120 246 144 117 30 107 57
103 -259 -3 -177 0 -276 6 -278 18 -7 35 4 35 23 0 10 9 22 20 25 24 8 26 30
4 39 -13 5 -15 35 -13 243 3 295 -1 302 -166 254z"/>
<path d="M15224 9780 c-132 -8 -164 -15 -164 -35 0 -22 25 -25 182 -15 84 5
242 10 351 10 197 0 197 0 197 -41 0 -49 -51 -206 -87 -269 -119 -205 -250
-289 -565 -364 -34 -8 -37 -33 -5 -41 34 -9 209 41 295 84 195 98 313 233 381
437 39 117 43 205 9 228 -25 18 -347 20 -594 6z"/>
<path d="M8002 8763 c-23 -18 -23 -18 -20 -361 3 -321 4 -345 21 -357 27 -19
51 -8 41 19 -5 11 -10 166 -11 344 -4 323 -4 323 44 317 295 -41 507 -230 583
-520 13 -50 18 -94 15 -116 -7 -42 14 -59 40 -33 21 21 19 75 -6 170 -77 299
-320 508 -635 549 -40 5 -55 3 -72 -12z"/>
    </g>

    <g id="windows" class="layer windows" fill="#06b6d4" stroke="none">
      <path d="M8138 13623 l-66 -4 -10 -12 c-5 -7 -12 -40 -15 -74 l-7 -62 16 -15
15 -16 493 0 492 0 12 12 12 12 0 71 0 71 -12 12 -12 12 -426 -2 c-234 -1
-455 -3 -492 -5z m897 -53 l0 -15 -464 -3 -465 -2 -9 9 c-5 5 -6 14 -2 20 l6
11 467 -2 467 -3 0 -15z m-7 -72 l3 -18 -465 0 -465 0 -6 10 c-3 6 -3 15 0 20
l6 10 462 -2 462 -3 3 -17z"/>
<path d="M16082 13588 l-12 -12 0 -76 0 -76 12 -12 12 -12 316 0 317 0 15 18
15 17 -1 66 -2 67 -13 16 -13 16 -317 0 -317 0 -12 -12z m623 -48 l0 -15 -289
-3 -290 -2 -9 9 c-5 5 -6 14 -2 20 l6 11 292 -2 292 -3 0 -15z m-6 -59 l14 -9
-6 -16 -6 -16 -288 2 -288 3 -3 17 -3 18 208 3 c114 1 242 3 283 5 41 1 81 -2
89 -7z"/>
<path d="M12896 12764 l-16 -15 0 -68 0 -67 12 -12 12 -12 811 0 811 0 12 12
12 12 0 67 0 68 -16 15 -15 16 -804 0 -804 0 -15 -16z m1599 -44 l0 -15 -779
-3 -780 -2 -9 9 c-5 5 -6 14 -3 20 l7 11 782 -2 782 -3 0 -15z m5 -75 l0 -15
-784 0 -785 0 -5 9 c-3 4 -3 11 1 15 3 3 359 6 790 6 l783 0 0 -15z"/>
<path d="M18012 11288 l-12 -12 0 -432 0 -433 16 -15 15 -16 69 0 69 0 11 19
10 20 0 428 0 429 -12 12 -12 12 -71 0 -71 0 -12 -12z m63 -444 l0 -409 -15 0
-15 0 -3 400 c-2 408 -1 430 21 422 l12 -4 0 -409z m77 404 c2 -7 5 -190 7
-406 l3 -392 -12 -15 -13 -15 -13 11 -14 11 0 403 c0 221 3 405 7 408 11 11
31 8 35 -5z"/>
<path d="M9692 5788 l-12 -12 0 -73 0 -72 19 -11 20 -10 843 0 844 0 12 12 12
12 0 67 0 68 -16 15 -15 16 -848 0 -847 0 -12 -12z m1686 -45 l-3 -18 -815 -3
-814 -2 -9 9 c-5 5 -6 14 -3 20 l7 11 820 0 820 0 -3 -17z m1 -67 l11 -13 -13
-12 -14 -11 -814 2 -814 3 0 15 0 15 90 6 c50 3 417 6 816 7 l727 2 11 -14z"/>
<path d="M16372 5788 l-12 -12 0 -71 0 -71 12 -12 12 -12 456 0 456 0 12 12
12 12 0 71 0 71 -12 12 -12 12 -456 0 -456 0 -12 -12z m896 -45 l-3 -18 -425
-3 -424 -2 -9 9 c-5 5 -6 14 -3 20 l7 11 430 0 430 0 -3 -17z m1 -67 l11 -13
-14 -12 -13 -11 -424 2 -424 3 -3 17 -3 17 38 4 c21 2 214 4 429 5 l392 2 11
-14z"/>
<path d="M15065 5525 c-132 -84 -307 -198 -390 -252 l-150 -98 -2 -20 c-1 -11
15 -45 35 -75 l38 -55 19 0 c11 0 83 40 160 88 77 49 253 159 390 246 l250
157 3 20 3 21 -41 62 -41 61 -17 -1 c-9 0 -125 -70 -257 -154z m270 95 c3 -5
-3 -17 -15 -27 -42 -37 -716 -453 -732 -453 -58 0 -4 39 461 332 46 29 120 77
165 105 80 52 109 62 121 43z m34 -64 l12 -14 -13 -12 c-36 -31 -716 -453
-732 -454 -10 -1 -21 4 -23 11 l-4 12 83 54 c122 79 359 228 388 244 14 7 79
49 145 92 134 89 128 86 144 67z"/>
<path d="M12427 5646 c-29 -29 -78 -116 -75 -132 l3 -17 245 -148 c470 -284
563 -337 574 -333 7 3 29 33 49 68 l37 63 -6 16 c-7 20 5 12 -357 231 -166
100 -333 201 -371 224 -76 47 -79 48 -99 28z m100 -70 c104 -61 627 -378 656
-398 30 -21 34 -36 13 -44 l-14 -5 -269 162 c-147 89 -314 190 -370 223 l-102
61 -1 18 c0 25 21 21 87 -17z m20 -103 c59 -36 219 -133 354 -214 248 -149
276 -170 264 -188 l-6 -11 -60 30 c-32 17 -85 47 -117 67 -45 29 -300 184
-549 335 -33 20 -39 29 -26 41 13 14 34 5 140 -60z"/>
<path d="M13432 5128 l-12 -12 0 -76 0 -76 12 -12 12 -12 447 0 448 0 15 22
16 22 0 62 0 61 -18 16 -19 17 -444 0 -445 0 -12 -12z m886 -50 l3 -18 -425 0
-426 0 0 13 c0 26 17 27 429 25 l416 -3 3 -17z m-3 -78 l0 -15 -422 -3 -423
-2 0 13 c0 26 17 27 429 25 l416 -3 0 -15z"/>
    </g>

    <g id="furniture" class="layer furniture" fill="#84cc16" stroke="none">
      <path d="M7491 13466 c-8 -10 -11 -576 -11 -2143 l0 -2130 20 -18 19 -17 318
4 c175 1 324 7 331 11 9 6 12 95 12 386 0 404 1 395 -50 403 l-25 3 0 1445 0
1445 934 3 c670 1 938 5 948 13 18 16 19 579 1 597 -9 9 -300 12 -1249 12
l-1237 0 -11 -14z m2464 -296 l0 -265 -945 -5 -945 -5 -3 -305 c-2 -341 -2
-338 -34 -316 l-22 16 -216 0 -216 0 -20 -15 c-12 -8 -24 -11 -28 -8 -8 9 -8
1158 1 1166 3 4 551 6 1217 5 l1211 -3 0 -265z m-1941 -937 c10 -36 0 -473
-12 -485 -14 -14 -398 -6 -413 9 -8 8 -15 303 -10 456 l1 37 214 0 215 0 5
-17z m44 -1345 l-3 -883 -265 0 -265 0 -3 878 c-1 540 1 877 7 877 5 0 11 -10
13 -22 l3 -23 245 0 245 0 3 28 c2 15 8 27 13 27 6 0 8 -337 7 -882z m27
-1328 l0 -355 -280 0 -280 0 -3 345 c-1 190 0 351 3 358 3 10 65 12 282 10
l278 -3 0 -355z m55 5 c0 -223 -4 -345 -10 -345 -6 0 -10 122 -10 345 0 223 4
345 10 345 6 0 10 -122 10 -345z"/>
<path d="M8207 13402 l-17 -19 0 -211 0 -212 20 -20 20 -20 338 0 339 0 16 18
17 19 0 215 0 215 -18 16 -19 17 -340 0 -340 0 -16 -18z m254 -29 c22 -22 -23
-37 -118 -41 -68 -3 -96 -8 -100 -18 -3 -8 -9 -14 -14 -14 -12 0 -12 63 0 76
13 12 219 10 232 -3z m434 -203 l0 -205 -329 0 -329 0 -11 17 c-5 9 -7 21 -2
25 4 4 12 0 17 -10 l10 -17 152 0 c106 0 157 4 165 12 8 8 12 59 12 162 l0
150 -21 22 c-13 13 -19 30 -15 39 l6 15 172 -2 173 -3 0 -205z m-445 120 c0
-4 -7 -13 -15 -20 -18 -15 -20 -50 -3 -50 7 0 29 17 50 37 53 52 59 41 56
-113 l-3 -129 -130 0 -130 0 -3 134 c-1 77 1 137 7 140 14 9 171 9 171 1z"/>
<path d="M8723 13333 c-73 -3 -93 -7 -93 -18 l0 -15 116 0 115 0 -3 18 c-4 19
-7 20 -135 15z"/>
<path d="M8625 13269 c-15 -23 15 -30 126 -27 l114 3 0 15 0 15 -117 3 c-78 2
-119 -1 -123 -9z"/>
<path d="M8625 13209 c-15 -23 15 -30 121 -27 l109 3 0 15 0 15 -112 3 c-74 2
-114 -1 -118 -9z"/>
<path d="M8625 13149 c-15 -23 15 -30 121 -27 l109 3 0 15 0 15 -112 3 c-74 2
-114 -1 -118 -9z"/>
<path d="M8625 13089 c-15 -23 15 -30 121 -27 l109 3 0 15 0 15 -112 3 c-74 2
-114 -1 -118 -9z"/>
<path d="M8620 13027 c0 -11 28 -16 111 -20 116 -7 129 -5 129 19 l0 14 -120
0 c-94 0 -120 -3 -120 -13z"/>
<path d="M7660 12223 c-38 -14 -60 -47 -60 -89 l0 -42 31 -26 c42 -35 80 -34
118 5 70 69 2 185 -89 152z m68 -45 c20 -20 15 -76 -7 -88 -61 -32 -120 32
-74 82 18 20 63 24 81 6z"/>
<path d="M7851 12185 c-44 -51 -34 -99 28 -124 81 -34 145 77 77 135 -38 34
-68 30 -105 -11z m89 -19 c15 -19 9 -56 -12 -69 -25 -16 -68 7 -68 36 0 43 53
65 80 33z"/>
<path d="M7626 11935 c-50 -46 -30 -132 38 -155 93 -30 156 79 85 149 -39 39
-85 42 -123 6z m103 -29 c17 -20 10 -77 -10 -89 -45 -28 -103 28 -81 78 13 29
71 36 91 11z"/>
<path d="M7849 11921 c-17 -18 -29 -40 -29 -56 0 -16 12 -38 29 -56 39 -38 74
-38 113 1 l30 31 -6 32 c-14 72 -87 98 -137 48z m89 -23 c28 -28 7 -78 -33
-78 -27 0 -45 18 -45 45 0 27 18 45 45 45 12 0 26 -5 33 -12z"/>
<path d="M17165 13438 c-3 -7 -4 -209 -3 -448 l3 -435 424 -3 c244 -1 429 2
434 7 14 14 22 842 8 869 l-12 22 -425 0 c-330 0 -426 -3 -429 -12z m783 -25
l52 -6 0 -404 0 -404 -17 -7 c-10 -4 -189 -7 -398 -7 l-380 0 -3 412 -2 412
92 4 c162 6 601 6 656 0z"/>
<path d="M17246 13375 l-21 -11 -3 -360 -2 -360 14 -19 14 -20 341 0 340 0 23
23 23 23 0 349 0 349 -18 18 -18 18 -336 0 c-211 0 -344 -4 -357 -10z m692
-369 c2 -242 -1 -343 -9 -352 l-11 -14 -324 0 -324 0 -10 26 c-11 27 -14 642
-4 668 l6 16 337 -2 336 -3 3 -339z"/>
<path d="M17818 13276 c-21 -47 16 -83 52 -51 23 20 26 45 8 63 -20 20 -48 14
-60 -12z"/>
<path d="M17330 13265 c0 -23 31 -26 220 -23 l175 3 3 18 3 17 -200 0 -201 0
0 -15z"/>
<path d="M17556 12980 c-185 -187 -223 -235 -190 -235 15 0 414 417 414 432 0
27 -22 8 -224 -197z"/>
<path d="M17845 13128 c-3 -7 -4 -101 -3 -208 l3 -195 15 0 15 0 0 204 c0 155
-3 205 -12 208 -7 3 -15 -1 -18 -9z"/>
<path d="M15352 13428 c-7 -7 -12 -41 -12 -81 l0 -70 36 -34 36 -33 1 -53 c0
-28 -8 -81 -18 -116 l-18 -64 12 -61 c46 -224 243 -273 345 -86 l30 54 0 81
c1 56 -4 93 -17 125 -26 61 -16 105 34 151 l39 36 0 65 c0 50 -4 69 -18 81
l-19 17 -209 0 c-150 0 -213 -3 -222 -12z m426 -80 c2 -26 -2 -56 -8 -68 l-11
-20 -177 0 c-205 0 -202 -1 -202 82 l0 58 198 -2 197 -3 3 -47z m-83 -147 c0
-11 -26 -14 -122 -16 l-123 -3 0 19 0 20 123 -3 c96 -2 122 -6 122 -17z m-38
-51 c16 0 29 -12 45 -42 l22 -43 1 -90 0 -90 -22 -41 c-123 -231 -370 15 -253
251 l25 50 45 6 c25 4 61 5 80 3 19 -2 45 -4 57 -4z"/>
<path d="M16137 13433 c-14 -13 -8 -262 7 -296 18 -43 59 -80 126 -113 l55
-28 90 1 c124 1 219 44 266 119 l19 31 0 135 c0 91 -4 138 -12 146 -13 13
-539 18 -551 5z m521 -105 c3 -77 2 -79 -44 -39 -20 18 -54 34 -89 42 -35 8
-60 19 -66 31 -13 24 -61 23 -84 -2 -10 -11 -25 -20 -33 -20 -37 0 -99 -27
-128 -57 -19 -18 -36 -33 -39 -33 -8 0 -6 136 2 144 4 3 113 5 242 4 l236 -3
3 -67z m-280 -64 c2 -18 12 -40 23 -50 l20 -18 14 15 c7 8 18 30 22 49 11 40
25 46 82 30 110 -29 108 -134 -2 -193 l-42 -22 -85 0 c-95 1 -131 14 -174 65
-60 72 1 164 104 157 l35 -2 3 -31z m282 -118 c0 -16 -65 -76 -82 -76 -11 0
62 87 75 89 4 1 7 -5 7 -13z"/>
<path d="M15107 12443 c-4 -3 -7 -127 -7 -274 l0 -268 19 -11 c35 -18 230 -12
276 9 208 94 193 481 -21 540 -42 12 -257 15 -267 4z m233 -33 c0 -5 -9 -10
-21 -10 -49 0 -119 -84 -119 -143 0 -15 -10 -31 -25 -41 l-25 -17 -6 14 c-2 7
-6 53 -7 103 l-2 89 50 6 c85 10 155 10 155 -1z m106 -56 c32 -34 43 -55 27
-53 -5 0 -25 21 -47 45 -46 52 -28 60 20 8z m-48 -17 c86 -79 92 -250 12 -329
-60 -61 -123 -50 -155 25 -22 53 -19 63 23 84 57 28 50 79 -15 104 -29 11 -30
52 -3 97 34 56 90 63 138 19z m-223 -223 c16 -10 26 -29 30 -57 6 -31 19 -54
51 -86 24 -24 44 -46 44 -49 0 -7 -143 7 -151 16 -6 6 -14 156 -10 185 1 11 9
9 36 -9z m205 -184 c0 -5 -4 -10 -10 -10 -5 0 -10 5 -10 10 0 6 5 10 10 10 6
0 10 -4 10 -10z"/>
<path d="M9358 11679 l-18 -10 0 -758 0 -758 18 -16 19 -17 372 0 c238 0 379
4 392 10 l19 11 0 762 c0 580 -3 766 -12 775 -16 16 -764 17 -790 1z m757
-774 l0 -740 -365 0 -365 0 -3 730 c-1 402 0 736 3 743 3 10 82 12 367 10
l363 -3 0 -740z"/>
<path d="M6684 11567 c-2 -7 -3 -109 -2 -227 l3 -215 315 0 315 0 3 214 c2
149 -1 218 -9 227 l-11 14 -305 0 c-237 0 -305 -3 -309 -13z m591 -217 l0
-185 -275 0 -275 0 -3 175 c-1 96 0 180 3 187 3 11 61 13 277 11 l273 -3 0
-185z"/>
<path d="M5027 11423 c-4 -3 -7 -105 -7 -225 l0 -218 26 -10 c14 -6 46 -10 71
-10 l46 0 37 39 c52 55 67 57 176 26 112 -32 154 -29 231 15 120 68 145 164
66 251 -80 88 -205 114 -328 68 -69 -26 -109 -19 -130 22 -8 15 -24 33 -34 39
-22 11 -144 14 -154 3z m146 -40 c3 -5 7 -88 8 -186 l4 -178 -15 -9 c-8 -6
-37 -9 -65 -8 l-50 3 -3 180 c-1 98 0 185 2 192 6 14 111 19 119 6z m420 -71
c56 -30 87 -75 87 -127 l0 -38 -43 -41 c-44 -43 -100 -66 -157 -66 -43 0 -134
27 -160 48 l-21 17 -5 75 c-6 86 6 117 51 139 74 36 173 33 248 -7z m-335
-116 l3 -118 -18 4 -18 3 -3 104 c-3 112 1 135 21 129 8 -3 13 -39 15 -122z"/>
<path d="M5027 10833 c-13 -12 -8 -438 5 -451 8 -8 60 -12 168 -12 108 0 160
4 168 12 9 9 12 73 12 225 l0 212 -19 11 c-21 11 -323 14 -334 3z m77 -90 c-7
-75 -10 -83 -29 -83 -12 0 -15 13 -15 63 0 69 3 77 32 77 l18 0 -6 -57z m204
-88 c1 -55 -1 -125 -5 -155 l-8 -55 -75 0 -75 0 0 60 0 60 30 5 c46 8 47 45 1
64 l-36 15 0 49 c0 63 1 63 90 60 l75 -3 3 -100z m-218 -121 c14 -36 12 -90
-3 -103 -21 -17 -27 -3 -27 66 0 66 13 82 30 37z"/>
    </g>
  </g>

</svg>