<?xml version="1.0" encoding="UTF-8"?>
<svg xmlns="http://www.w3.org/2000/svg"
     xmlns:xlink="http://www.w3.org/1999/xlink"
     viewBox="0 0 2304.000000 1856.000000"
     width="2304" height="1856"
     preserveAspectRatio="xMidYMid meet">

  <title>BIMIT Floor Plan - Model X (Layered)</title>
  <desc>Architectural floor plan with AI-generated layers (Gemini nano-banana-pro-preview)</desc>

  <defs>
    <style type="text/css">
      .layer { stroke: none; }
      .walls { fill: #1a1a1a; }
      .doors { fill: #2563eb; }
      .windows { fill: #06b6d4; }
      .stairs { fill: #7c3aed; }
      .furniture { fill: #84cc16; }

      /* Add class="monochrome" to SVG root for traditional black view */
      .monochrome .layer { fill: #1a1a1a; }
    </style>
  </defs>

  <!-- Background -->
  <rect class="background" fill="#ffffff" width="100%" height="100%"/>

  <!-- Floor Plan Layers -->
  <g transform="translate(0.000000,1856.000000) scale(0.100000,-0.100000)">
    <g id="walls" class="layer walls" fill="#1a1a1a" stroke="none">
      <path d="M7347 13613 l-7 -6 0 -944 0 -943 -1237 -2 -1238 -3 0 -765 0 -765
527 -3 528 -2 2 -1148 3 -1147 1038 -3 1037 -2 10 26 c6 14 10 49 10 78 l0 52
-12 12 -12 12 -778 0 -778 0 0 59 c0 66 -4 73 -37 60 l-23 -8 0 -15 0 -14 -20
-5 -20 -5 0 -36 0 -36 -120 0 -120 0 0 500 0 500 119 0 120 0 3 -37 3 -38 20
-3 c11 -2 30 -13 42 -24 l22 -21 5 14 c2 8 9 57 15 109 l10 95 -9 64 c-5 36
-7 68 -4 73 3 4 3 12 0 17 l-6 9 -30 -15 c-17 -8 -30 -20 -30 -26 0 -7 -10
-17 -22 -22 l-23 -10 3 -33 3 -32 -120 0 -121 0 0 500 0 500 120 0 120 0 0
-24 0 -24 40 -36 41 -37 9 6 10 6 0 43 0 44 13 10 c6 6 28 12 47 14 l35 3 0
85 0 85 -740 3 -740 2 0 590 0 590 1113 0 1112 0 0 -590 0 -589 -87 -3 -88 -3
0 -85 0 -85 37 -3 38 -3 2 -537 3 -537 165 0 165 0 3 2168 2 2167 910 0 910 0
0 -885 0 -884 18 -8 17 -8 390 5 390 5 3 887 2 887 58 3 57 3 0 85 0 85 -145
0 -145 0 -3 -887 -2 -888 -219 0 -220 0 -5 8 c-7 12 -11 333 -9 767 1 215 -2
527 -5 695 l-7 305 -1081 3 -1081 2 -6 -7z"/>
<path d="M11004 13607 c-3 -8 -4 -47 -2 -88 l3 -74 348 -3 347 -2 0 -415 0
-415 28 -13 27 -12 1592 -3 1593 -3 2 -1407 3 -1407 85 0 85 0 3 87 3 86 13
11 13 11 594 2 594 3 3 73 3 74 -12 14 -11 14 -11 -7 -11 -7 -588 -1 -588 -1
0 738 0 738 628 2 627 3 3 73 3 74 -12 14 -11 14 -619 0 -619 0 0 810 0 809
19 10 19 11 1421 0 1421 0 0 -420 0 -420 -437 -2 -438 -3 -3 -397 -2 -397 -48
-3 -47 -3 0 -85 0 -85 488 -3 487 -2 0 -739 0 -738 -97 3 c-54 2 -227 5 -385
7 l-287 4 -16 -17 -16 -18 3 -68 3 -69 398 -3 397 -2 0 -2080 0 -2080 -1190 0
-1190 0 -2 348 -3 347 -247 3 -248 2 -2 1278 -3 1277 -85 0 -85 0 0 -1365 0
-1365 248 -3 247 -2 -2 -293 -3 -292 -65 -32 c-36 -18 -65 -36 -64 -40 1 -20
24 -60 44 -78 12 -11 26 -30 31 -42 l9 -23 18 0 19 0 18 20 c10 11 23 20 28
20 6 0 21 9 33 21 l22 20 1320 0 1320 0 14 17 13 17 0 3035 -1 3035 -10 35
-10 35 -427 3 -427 2 0 310 0 310 429 0 429 0 11 14 12 14 -5 504 c-2 276 -8
539 -13 583 l-8 80 -1615 0 -1615 0 -3 -407 -2 -408 -1530 0 -1530 0 -2 418
-3 417 -433 3 -433 2 -5 -13z"/>
<path d="M8704 8047 c-3 -8 -4 -47 -2 -88 l3 -74 88 -3 87 -3 1 -37 c1 -20 2
-392 4 -827 1 -434 6 -925 10 -1090 l7 -300 10 -13 10 -12 1481 0 1481 0 18
17 18 16 0 284 0 283 150 0 150 0 0 -303 0 -304 18 -16 c10 -10 21 -17 25 -17
3 0 27 -14 52 -31 l46 -31 30 28 c16 15 29 33 29 39 0 6 14 24 30 40 17 16 30
32 30 37 0 4 -18 16 -40 25 l-40 18 0 342 0 342 -17 9 -16 10 -81 -5 c-45 -3
-178 0 -296 5 l-215 10 -17 -9 -18 -10 0 -289 0 -290 -1330 0 -1330 0 0 1113
0 1114 -18 16 -19 17 -167 0 -167 0 -5 -13z"/>
<path d="M14513 5159 l-20 -21 -71 0 -71 -1 -17 -18 -17 -19 5 -65 6 -65 12
-15 12 -15 62 0 62 0 51 25 c28 15 57 33 63 40 7 8 18 15 26 15 7 0 16 5 19
11 l7 10 -19 22 c-10 12 -25 36 -33 52 -16 33 -40 65 -49 65 -4 0 -16 -9 -28
-21z"/>
<path d="M13240 5145 c-19 -23 -60 -106 -60 -122 l0 -13 24 -10 c13 -5 27 -13
30 -19 4 -6 22 -18 40 -26 l33 -16 74 3 74 3 3 83 3 84 -12 14 -11 14 -69 0
-68 0 -6 10 c-9 15 -41 12 -55 -5z"/>
    </g>

    <g id="doors" class="layer doors" fill="#2563eb" stroke="none">
      <path d="M10247 13614 c-4 -4 -7 -201 -7 -439 0 -322 3 -434 12 -443 14 -14
124 -16 133 -2 3 6 19 10 36 10 16 0 38 5 49 10 11 6 29 15 40 20 11 6 26 10
33 10 20 0 73 28 87 45 7 8 17 15 22 15 23 0 188 145 188 165 0 6 11 22 25 35
30 28 115 196 115 227 0 12 5 25 11 28 6 4 9 22 8 40 -2 18 2 40 9 48 9 10 12
48 10 123 -2 89 -6 109 -18 109 -12 0 -15 -21 -17 -124 -1 -73 -6 -128 -12
-134 -6 -6 -11 -26 -11 -43 0 -18 -4 -36 -10 -39 -5 -3 -10 -15 -10 -26 0 -10
-4 -27 -8 -37 -23 -46 -30 -60 -52 -102 -25 -48 -197 -230 -216 -230 -6 0 -17
-7 -24 -15 -12 -14 -40 -29 -110 -57 -14 -6 -33 -14 -42 -19 -10 -5 -31 -9
-47 -9 -17 0 -33 -4 -36 -10 -3 -5 -28 -10 -56 -10 l-49 0 0 363 c0 214 -4
367 -9 373 -6 5 -11 33 -13 63 -3 51 -15 71 -31 55z"/>
<path d="M9432 13148 c-15 -15 -18 -663 -3 -673 26 -15 31 45 31 339 0 195 4
306 10 306 6 0 11 -164 12 -457 3 -399 5 -458 18 -458 13 0 15 59 15 475 l0
475 -35 3 c-19 2 -41 -3 -48 -10z"/>
<path d="M12758 12763 c-25 -28 -23 -69 5 -85 17 -10 213 -14 930 -16 899 -3
907 -4 907 -23 0 -16 -4 -19 -22 -13 -37 11 -738 8 -751 -5 -7 -7 -6 -12 5
-16 8 -3 192 -4 409 -3 l394 3 0 45 0 45 -927 3 c-920 2 -928 2 -928 22 0 20
7 20 514 20 307 0 517 4 521 9 3 5 0 13 -7 18 -7 4 -242 9 -523 11 -494 4
-511 4 -527 -15z"/>
<path d="M9351 12406 c-8 -9 -10 -145 -9 -477 l3 -464 45 0 45 0 0 413 c0 385
-5 466 -26 392 -4 -14 -7 -197 -8 -407 -1 -248 -5 -383 -11 -383 -7 0 -10 161
-10 464 0 260 -4 467 -9 470 -5 3 -14 0 -20 -8z"/>
<path d="M16891 12406 c-6 -7 -21 -12 -32 -9 -11 3 -28 -2 -38 -11 -10 -9 -20
-13 -24 -10 -8 8 -111 -41 -127 -61 -7 -8 -17 -15 -24 -15 -14 0 -186 -171
-186 -186 0 -6 -7 -17 -15 -24 -18 -15 -65 -109 -65 -131 0 -10 -5 -21 -11
-24 -6 -4 -9 -25 -8 -46 2 -21 -2 -44 -9 -51 -14 -14 -17 -194 -3 -203 20 -12
32 38 30 126 -1 57 2 94 10 102 6 6 11 26 11 43 0 18 5 36 10 39 6 3 10 14 10
24 0 22 47 116 65 131 8 7 15 18 15 24 0 15 122 136 137 136 6 0 16 7 23 15 7
8 41 29 76 45 35 17 66 34 68 39 3 5 16 6 29 4 13 -3 28 1 34 9 8 9 30 12 72
10 l61 -4 0 -312 c0 -183 4 -316 9 -322 6 -5 11 -38 13 -74 2 -50 7 -65 18
-65 19 0 27 108 10 140 -6 12 -11 140 -13 345 l-2 325 -66 3 c-48 2 -69 -1
-78 -12z"/>
<path d="M6982 10887 c-7 -8 -22 -12 -35 -10 -24 5 -146 -54 -184 -89 -12 -12
-32 -26 -45 -32 -46 -23 -110 -121 -190 -292 -5 -12 -8 -32 -7 -46 2 -14 -2
-32 -9 -41 -19 -23 -12 -202 8 -202 12 0 15 19 17 109 0 63 6 113 12 119 6 6
11 23 11 38 0 24 16 63 53 134 6 11 16 31 23 45 25 49 139 150 209 185 38 19
76 35 86 35 9 0 21 6 27 13 7 8 30 11 66 9 l56 -4 0 -272 c0 -157 4 -276 9
-282 6 -5 11 -36 13 -69 2 -45 7 -60 18 -60 19 0 27 108 10 140 -6 12 -11 127
-13 300 l-2 280 -61 3 c-43 2 -64 -1 -72 -11z"/>
<path d="M6347 10173 c-4 -3 -7 -19 -7 -35 0 -21 6 -31 24 -38 13 -5 32 -21
43 -35 10 -15 30 -42 46 -60 15 -18 27 -37 27 -42 0 -6 9 -18 20 -28 11 -10
20 -23 20 -30 0 -6 14 -24 30 -40 17 -16 30 -34 30 -40 0 -7 9 -20 20 -30 27
-25 26 -29 -15 -45 -20 -8 -40 -19 -46 -26 -5 -7 -19 -10 -30 -7 -11 3 -30 1
-42 -5 -12 -5 -30 -13 -41 -16 -29 -10 0 -36 40 -36 19 0 42 -4 52 -9 9 -5 32
-16 50 -23 42 -17 43 -53 2 -93 -16 -16 -30 -34 -30 -40 0 -7 -9 -20 -20 -30
-11 -10 -20 -24 -20 -30 0 -7 -7 -19 -16 -26 -16 -13 -49 -59 -85 -118 -9 -15
-28 -28 -45 -31 -35 -6 -40 -27 -15 -60 l20 -25 30 29 c17 17 31 35 31 41 0 7
9 20 20 30 11 10 20 23 20 30 0 7 9 20 20 30 11 10 20 23 20 30 0 6 14 24 30
40 17 16 30 34 30 40 0 7 9 20 20 30 11 10 20 24 20 30 0 7 7 18 15 25 20 16
46 70 39 81 -3 5 -11 9 -18 9 -7 0 -20 8 -29 18 -9 10 -32 24 -52 32 -32 13
-45 39 -15 32 19 -4 72 23 98 51 21 22 21 25 7 54 -9 17 -22 36 -30 43 -8 7
-15 17 -15 22 0 4 -22 38 -50 73 -27 35 -50 68 -50 73 0 5 -9 17 -20 27 -11
10 -20 23 -20 30 0 7 -9 20 -20 30 -11 10 -20 23 -20 30 0 28 -55 57 -73 38z"/>
<path d="M17107 10114 c-4 -4 -7 -36 -7 -70 0 -35 -4 -66 -10 -69 -6 -4 -10
-135 -10 -361 l0 -354 -53 0 c-59 0 -72 -6 -56 -27 16 -18 142 -18 158 1 8 9
10 135 9 446 -3 415 -6 459 -31 434z"/>
<path d="M16367 10103 c-13 -12 -8 -228 5 -241 7 -7 11 -30 9 -51 -1 -21 2
-42 8 -46 6 -3 11 -15 11 -26 0 -20 15 -52 39 -81 8 -10 10 -18 6 -18 -4 0 0
-9 10 -20 10 -11 15 -20 11 -20 -19 0 110 -166 147 -189 18 -11 43 -31 56 -45
14 -14 30 -26 37 -26 6 0 17 -7 24 -15 15 -18 109 -65 131 -65 10 0 21 -4 24
-10 7 -11 48 -14 58 -3 12 11 -14 33 -39 33 -14 0 -32 4 -42 9 -9 5 -42 21
-73 35 -32 15 -62 33 -69 41 -7 8 -18 15 -24 15 -14 0 -176 162 -176 176 0 6
-11 21 -25 34 -13 12 -22 26 -20 30 3 4 -2 13 -10 20 -7 6 -12 17 -9 25 3 7 1
16 -5 20 -6 3 -11 17 -11 30 0 13 -4 27 -10 30 -5 3 -10 23 -10 44 0 20 -5 42
-11 48 -7 7 -11 54 -10 131 2 91 -1 121 -12 130 -8 7 -17 9 -20 5z"/>
<path d="M14945 9790 c-13 -21 8 -30 70 -30 35 0 67 -4 70 -10 4 -6 135 -10
360 -10 l353 0 4 -46 c2 -28 -1 -49 -9 -56 -7 -6 -13 -25 -13 -44 0 -18 -4
-36 -10 -39 -5 -3 -10 -14 -10 -23 0 -31 -69 -157 -105 -192 -19 -19 -35 -40
-35 -46 0 -7 -19 -26 -43 -43 -24 -16 -49 -36 -56 -45 -7 -9 -25 -22 -40 -29
-14 -7 -35 -18 -46 -24 -11 -6 -37 -19 -57 -27 -20 -9 -40 -21 -43 -26 -3 -5
-12 -7 -20 -3 -9 3 -22 -1 -31 -8 -9 -7 -32 -12 -51 -10 -35 3 -67 -14 -57
-30 8 -14 70 -10 83 5 7 8 20 12 30 9 9 -2 23 2 30 11 7 8 18 13 24 10 13 -5
121 47 171 81 40 27 166 146 166 157 0 4 16 28 35 53 31 41 49 75 76 143 5 12
14 33 20 46 6 13 9 38 7 55 -3 19 1 36 9 42 16 14 17 91 1 107 -9 9 -108 12
-384 12 -238 0 -375 4 -379 10 -3 6 -30 10 -60 10 -30 0 -57 -4 -60 -10z"/>
<path d="M6347 9053 c-4 -3 -7 -19 -7 -35 0 -21 6 -31 25 -38 14 -5 29 -20 34
-32 5 -13 21 -34 35 -47 14 -14 26 -30 26 -36 0 -7 9 -20 20 -30 11 -10 20
-23 20 -30 0 -6 14 -24 30 -40 17 -16 30 -33 30 -39 0 -5 10 -20 21 -32 26
-28 20 -74 -11 -74 -10 0 -22 -4 -25 -10 -3 -5 -16 -10 -29 -10 -12 0 -26 -4
-31 -9 -6 -6 -30 -11 -55 -13 -60 -4 -64 -32 -5 -36 22 -2 44 -8 50 -13 5 -5
19 -9 32 -9 13 0 31 -4 41 -9 9 -5 25 -12 35 -15 23 -7 22 -49 -3 -71 -11 -10
-20 -23 -20 -30 0 -6 -13 -24 -30 -40 -16 -16 -30 -34 -30 -40 0 -7 -9 -20
-20 -30 -11 -10 -20 -23 -20 -30 0 -7 -9 -20 -20 -30 -11 -10 -20 -23 -20 -29
-1 -19 -49 -68 -60 -61 -6 4 -17 2 -24 -5 -12 -9 -12 -16 1 -40 8 -17 18 -30
23 -30 14 0 120 130 120 148 0 5 9 17 20 27 11 10 20 23 20 30 0 7 9 20 20 30
11 10 20 23 20 30 0 7 9 20 20 30 11 10 20 23 20 30 0 6 14 24 30 40 43 41 39
59 -22 89 -29 14 -58 26 -65 26 -29 0 -10 31 30 49 23 11 53 31 66 45 l24 26
-21 23 c-12 13 -22 28 -22 33 0 6 -13 23 -30 39 -16 16 -30 34 -30 40 0 7 -9
20 -20 30 -11 10 -20 23 -20 30 0 6 -13 24 -30 40 -16 16 -30 34 -30 40 0 7
-9 20 -20 30 -11 10 -20 23 -20 30 0 11 -51 65 -61 65 -3 0 -9 -3 -12 -7z"/>
<path d="M14947 9053 c-4 -3 -2 -12 4 -20 8 -9 38 -13 99 -13 61 0 91 4 99 13
18 23 2 27 -99 27 -53 0 -100 -3 -103 -7z"/>
<path d="M7987 8773 c-11 -10 -8 -871 2 -878 5 -3 13 0 16 5 16 26 27 238 26
515 -1 248 1 304 13 320 10 14 11 24 4 32 -11 14 -50 18 -61 6z"/>
<path d="M8086 8751 c-10 -16 22 -33 58 -30 20 2 41 -2 48 -9 6 -6 22 -12 34
-12 13 0 26 -5 29 -11 4 -6 13 -8 20 -5 8 3 19 -2 25 -9 7 -8 16 -13 20 -10 4
2 18 -7 30 -20 13 -14 27 -25 32 -25 21 0 158 -117 158 -135 0 -6 16 -26 35
-45 19 -18 32 -36 30 -40 -3 -4 2 -13 10 -20 8 -7 13 -16 10 -20 -3 -4 1 -13
9 -19 8 -7 12 -20 9 -30 -2 -9 2 -23 11 -30 8 -7 12 -19 9 -27 -3 -8 1 -21 8
-30 7 -9 12 -32 10 -51 -3 -35 14 -67 30 -57 14 8 10 70 -5 83 -8 7 -12 20 -9
30 2 9 -2 23 -11 30 -8 7 -12 19 -9 27 3 8 -3 24 -12 34 -10 11 -14 20 -10 20
4 0 0 9 -10 20 -10 11 -14 20 -10 20 4 0 0 9 -10 20 -10 11 -15 20 -11 20 14
0 -37 65 -103 133 -36 37 -71 67 -77 67 -6 0 -18 7 -25 16 -13 16 -47 33 -60
30 -4 0 -16 8 -28 18 -12 11 -21 15 -21 11 0 -4 -8 -2 -17 6 -30 25 -71 42
-87 36 -8 -3 -20 1 -26 9 -14 15 -75 19 -84 5z"/>
<path d="M8705 8078 c-3 -8 -5 -55 -3 -104 2 -71 6 -89 18 -89 22 0 27 176 5
195 -12 10 -16 10 -20 -2z"/>
    </g>

    <g id="windows" class="layer windows" fill="#06b6d4" stroke="none">
      <path d="M8047 13613 c-4 -3 -7 -39 -7 -78 l0 -73 14 -11 13 -11 504 2 504 3
0 85 0 85 -20 0 -19 0 -1 -25 c0 -14 -3 -26 -7 -27 -5 -2 -219 -3 -478 -3
l-470 0 0 8 c0 5 12 14 26 20 14 7 22 17 19 22 -7 11 -68 14 -78 3z m993 -113
l0 -20 -480 0 -480 0 0 20 0 20 480 0 480 0 0 -20z"/>
<path d="M16077 13582 l-17 -19 0 -65 0 -65 18 -16 19 -17 315 0 315 0 16 18
17 19 0 69 0 70 -12 12 -12 12 -321 0 -322 0 -16 -18z m643 -42 l0 -20 -310 0
-310 0 0 20 0 20 310 0 310 0 0 -20z m0 -80 l0 -20 -310 0 -310 0 0 20 0 20
310 0 310 0 0 -20z"/>
<path d="M12891 12766 l-12 -14 3 -74 3 -73 20 0 20 0 -3 28 -3 27 800 0 801
0 0 -9 c0 -5 -7 -14 -15 -21 l-16 -13 10 -10 c5 -5 16 -7 24 -4 l14 5 -1 84
-1 83 -816 3 -816 2 -12 -14z m1619 -46 l0 -20 -795 0 -795 0 0 20 0 20 795 0
795 0 0 -20z"/>
<path d="M18007 11294 c-4 -4 -7 -206 -7 -449 l0 -441 12 -12 12 -12 71 0 72
0 14 18 15 17 -6 345 -5 345 -10 0 -10 0 -3 -342 -2 -343 -20 0 -20 0 -2 153
c-1 83 -2 271 -1 417 l2 265 28 0 28 1 0 19 0 20 -80 3 c-45 1 -84 0 -88 -4z
m73 -454 l0 -420 -20 0 -20 0 0 420 0 420 20 0 20 0 0 -420z"/>
<path d="M9697 5782 l-17 -19 0 -65 0 -65 18 -16 19 -17 840 0 841 0 12 15 c7
9 11 18 8 20 -3 3 -386 5 -852 5 l-846 0 0 20 0 20 848 0 847 0 0 57 0 58
-851 3 -851 2 -16 -18z m1693 -42 l0 -20 -835 0 -835 0 0 20 0 20 835 0 835 0
0 -20z"/>
<path d="M16364 5786 c-3 -7 -4 -38 -2 -67 l3 -54 15 5 c8 3 214 6 458 8 l442
2 0 -20 0 -20 -456 0 c-251 1 -459 -2 -462 -4 -3 -3 1 -12 8 -21 l12 -15 453
0 452 0 17 19 17 19 -3 78 -3 79 -473 3 -473 2 -5 -14z m916 -46 l0 -20 -440
0 -440 0 0 20 0 20 440 0 440 0 0 -20z"/>
<path d="M15293 5666 c-13 -7 -31 -20 -41 -29 -10 -10 -23 -17 -29 -17 -5 0
-18 -9 -28 -20 -10 -11 -22 -20 -28 -20 -5 0 -29 -13 -54 -30 -24 -16 -48 -30
-52 -30 -4 0 -16 -9 -26 -20 -10 -11 -23 -20 -30 -20 -6 0 -22 -11 -35 -25
-12 -13 -25 -24 -29 -23 -12 2 -57 -20 -70 -36 -7 -9 -19 -16 -25 -16 -7 0
-23 -11 -36 -25 -12 -13 -26 -23 -29 -22 -4 1 -40 -19 -80 -45 -40 -27 -77
-48 -81 -48 -4 0 -15 -9 -25 -20 -10 -11 -23 -20 -30 -20 -16 0 -45 -33 -45
-52 0 -8 9 -23 20 -33 11 -10 20 -23 20 -30 0 -6 13 -23 28 -38 l28 -27 31 15
c17 9 36 22 43 30 7 8 17 15 22 15 5 0 29 14 53 30 24 17 48 30 53 30 5 0 17
9 27 20 10 11 23 20 30 20 7 0 20 9 30 20 10 11 23 20 30 20 6 0 22 11 35 25
13 14 25 23 28 20 2 -2 24 9 48 25 23 17 47 30 52 30 4 0 19 11 32 25 12 13
26 23 29 21 3 -3 25 9 49 25 23 16 46 29 51 29 4 0 18 11 31 25 12 13 25 23
29 22 9 -2 54 23 79 46 27 25 28 48 2 72 -11 10 -20 23 -20 30 0 11 -52 66
-61 64 -2 -1 -14 -7 -26 -13z m47 -44 c0 -10 -13 -31 -30 -47 -16 -16 -30 -25
-30 -21 0 4 -20 -7 -44 -24 -25 -16 -49 -30 -54 -30 -5 0 -17 -9 -27 -20 -10
-11 -23 -20 -30 -20 -6 0 -22 -11 -35 -25 -12 -13 -25 -24 -29 -23 -12 2 -57
-20 -70 -36 -7 -9 -18 -16 -23 -16 -5 0 -29 -13 -53 -30 -24 -16 -48 -30 -53
-30 -5 0 -17 -9 -27 -20 -10 -11 -22 -20 -27 -20 -5 0 -29 -13 -53 -30 -24
-16 -48 -30 -53 -30 -5 0 -15 -7 -22 -15 -27 -33 -120 -61 -120 -36 0 9 106
91 119 91 4 0 16 9 26 20 10 11 23 20 30 20 6 0 22 11 35 25 12 13 25 24 29
23 12 -2 57 20 70 36 7 9 19 16 25 16 7 0 23 11 36 25 12 13 25 24 29 23 12
-2 57 20 70 36 7 9 19 16 26 16 6 0 20 9 30 20 10 11 22 20 28 20 5 0 29 14
54 30 24 17 47 30 50 30 4 0 15 7 25 17 25 23 60 41 81 42 l17 1 0 -18z m24
-58 c19 -7 21 -44 3 -44 -8 0 -24 -11 -37 -25 -12 -13 -25 -24 -29 -23 -12 2
-57 -20 -70 -36 -7 -9 -19 -16 -25 -16 -7 0 -23 -11 -36 -25 -12 -13 -26 -23
-29 -21 -3 3 -25 -9 -49 -25 -23 -16 -46 -29 -51 -29 -4 0 -18 -11 -31 -25
-13 -14 -25 -23 -28 -20 -2 2 -24 -9 -48 -25 -23 -17 -47 -30 -52 -30 -5 0
-17 -9 -27 -20 -10 -11 -23 -20 -30 -20 -7 0 -20 -9 -30 -20 -10 -11 -22 -20
-28 -20 -5 0 -21 -8 -35 -19 -45 -32 -102 -61 -118 -61 l-15 0 3 22 c2 12 13
28 25 34 13 6 31 18 41 27 10 10 23 17 29 17 5 0 18 9 28 20 10 11 22 20 28
20 5 0 29 14 54 30 24 17 48 30 52 30 4 0 16 9 26 20 10 11 22 20 28 20 5 0
29 14 54 30 24 17 47 30 52 30 4 0 18 11 31 25 12 13 25 24 29 23 12 -2 57 20
70 36 7 9 19 16 26 16 6 0 20 9 30 20 10 11 23 20 30 20 6 0 22 11 35 25 13
14 25 23 28 20 3 -2 14 2 26 10 24 17 20 17 40 9z"/>
<path d="M12420 5638 c-5 -13 -25 -46 -44 -75 l-35 -51 17 -14 c9 -8 34 -22
54 -32 20 -9 40 -21 43 -26 3 -5 23 -17 43 -27 20 -10 56 -30 78 -45 23 -15
46 -28 52 -28 5 0 15 -7 22 -15 7 -9 33 -25 56 -35 24 -11 46 -24 49 -30 3 -6
26 -19 50 -30 24 -11 47 -25 50 -31 7 -10 55 -33 66 -31 4 1 17 -10 29 -23 13
-14 28 -25 33 -25 5 0 22 -9 37 -20 16 -11 54 -34 86 -50 l57 -31 24 23 c13
12 29 33 36 47 8 15 20 36 28 49 l14 23 -25 19 c-14 11 -39 27 -57 35 -18 9
-35 20 -39 26 -6 11 -44 28 -56 25 -4 0 -19 11 -35 25 -15 14 -45 33 -65 43
-20 9 -40 21 -44 27 -6 10 -37 24 -59 28 -5 1 -21 12 -35 25 -24 22 -58 40
-71 38 -4 -1 -17 10 -29 23 -13 14 -28 25 -32 25 -5 0 -29 14 -53 30 -24 17
-46 30 -49 30 -3 0 -25 14 -49 30 -25 17 -49 30 -54 30 -6 0 -18 9 -28 20 -10
11 -27 20 -37 20 l-18 0 -10 -22z m68 -36 c15 -10 44 -26 64 -35 20 -10 40
-22 43 -27 3 -6 26 -19 50 -30 24 -11 47 -25 50 -31 7 -10 37 -24 60 -28 6 -1
21 -12 35 -25 24 -22 58 -40 71 -38 4 1 17 -10 29 -23 13 -14 28 -25 32 -25 5
0 28 -13 51 -28 41 -28 80 -47 84 -40 1 2 14 -8 30 -22 15 -14 40 -32 54 -39
14 -7 39 -23 55 -36 l29 -24 -16 -16 -16 -16 -39 22 c-21 12 -50 29 -64 39
-14 9 -29 19 -35 21 -5 2 -26 14 -45 26 -19 12 -39 22 -45 23 -5 1 -21 11 -35
24 -23 21 -41 31 -65 35 -5 1 -21 12 -35 25 -24 22 -48 35 -62 32 -4 0 -19 11
-35 25 -27 25 -61 44 -74 41 -4 -1 -17 10 -29 23 -13 14 -29 25 -36 25 -6 0
-17 7 -24 15 -7 9 -33 25 -57 36 -24 11 -53 29 -63 39 l-20 20 6 15 c8 20 20
19 52 -3z m5 -92 c25 -16 49 -30 55 -30 5 0 16 -7 23 -16 12 -15 62 -39 66
-32 1 2 14 -9 30 -23 26 -24 65 -45 70 -37 1 2 14 -9 30 -23 24 -23 57 -41 73
-40 3 0 16 -10 30 -23 24 -22 58 -40 71 -38 4 1 17 -10 29 -23 13 -14 28 -25
32 -25 5 0 29 -13 53 -30 24 -16 46 -30 49 -30 4 0 22 -10 41 -22 l35 -23 0
-17 c0 -10 -6 -18 -13 -18 -16 0 -142 63 -165 82 -18 16 -53 32 -63 30 -4 -1
-17 10 -29 23 -13 14 -27 25 -31 25 -5 0 -28 14 -52 30 -25 17 -48 30 -52 30
-3 0 -26 14 -50 30 -24 17 -46 30 -49 30 -3 0 -25 14 -49 30 -25 17 -47 30
-50 30 -4 0 -26 14 -50 30 -25 17 -49 30 -54 30 -6 0 -18 9 -28 20 -10 11 -24
20 -32 20 l-13 0 0 20 0 20 24 0 c14 0 45 -13 69 -30z"/>
<path d="M13424 5127 c-3 -8 -4 -52 -2 -98 l3 -84 465 0 465 0 0 58 0 58 -447
-1 -448 0 0 20 0 20 448 0 447 -1 0 18 0 18 -463 3 -463 2 -5 -13z m906 -127
l0 -20 -435 0 -435 0 0 20 0 20 435 0 435 0 0 -20z"/>
    </g>

    <g id="furniture" class="layer furniture" fill="#84cc16" stroke="none">
      <path d="M7497 13462 l-17 -19 0 -2125 0 -2125 18 -16 19 -17 315 0 315 0 16
18 17 19 0 365 0 365 -18 16 c-10 10 -28 17 -40 17 l-22 0 0 1450 0 1450 933
0 934 0 16 18 17 19 0 279 c0 205 -3 283 -12 292 -9 9 -299 12 -1243 12
l-1232 0 -16 -18z m2463 -292 l0 -270 -944 0 c-561 0 -947 -4 -950 -9 -4 -5
-6 -658 -6 -1450 l0 -1441 -270 0 -270 0 0 1720 0 1720 1220 0 1220 0 0 -270z
m-1872 -3610 l-2 -360 -283 0 -283 0 0 360 0 360 285 0 284 0 -1 -360z m52 0
c0 -233 -4 -360 -10 -360 -6 0 -10 127 -10 360 0 233 4 360 10 360 6 0 10
-127 10 -360z"/>
<path d="M8213 13408 c-31 -44 -35 -68 -31 -234 1 -93 7 -175 11 -182 21 -32
27 12 27 194 l0 194 130 0 c72 0 130 -4 130 -8 0 -23 -30 -32 -107 -32 -99 0
-133 -16 -133 -61 0 -40 19 -46 33 -10 l11 31 88 0 c48 0 88 -3 88 -7 0 -4
-10 -17 -22 -30 -16 -17 -19 -26 -10 -35 8 -8 23 0 59 32 l48 42 3 -137 c1
-76 1 -139 0 -140 -6 -6 -263 -10 -278 -5 -10 3 -15 -2 -15 -15 l0 -20 154 -3
c104 -2 158 1 167 9 11 9 14 47 14 166 l0 155 -20 5 c-14 4 -20 14 -20 34 l0
29 180 0 180 0 0 -210 0 -210 -342 0 c-189 0 -347 0 -352 0 -5 0 -1 -9 9 -20
l18 -20 337 0 337 0 16 18 17 19 0 215 0 215 -18 16 -19 17 -340 0 c-261 0
-343 -3 -350 -12z"/>
<path d="M8711 13329 c-43 -17 -9 -30 70 -27 58 2 74 6 74 18 0 11 -14 15 -60
17 -33 1 -71 -2 -84 -8z"/>
<path d="M8625 13269 c-15 -23 15 -30 121 -27 l109 3 0 15 0 15 -112 3 c-74 2
-114 -1 -118 -9z"/>
<path d="M8625 13209 c-15 -23 15 -30 121 -27 l109 3 0 15 0 15 -112 3 c-74 2
-114 -1 -118 -9z"/>
<path d="M8625 13149 c-15 -23 15 -30 121 -27 l109 3 0 15 0 15 -112 3 c-74 2
-114 -1 -118 -9z"/>
<path d="M8625 13089 c-15 -23 15 -30 121 -27 l109 3 0 15 0 15 -112 3 c-74 2
-114 -1 -118 -9z"/>
<path d="M8625 13029 c-15 -23 15 -30 121 -27 l109 3 0 15 0 15 -112 3 c-74 2
-114 -1 -118 -9z"/>
<path d="M7547 12274 c-4 -4 -7 -128 -7 -276 l0 -268 36 -15 c28 -12 80 -15
234 -15 l197 0 18 20 c10 11 14 20 9 20 -5 1 -109 0 -232 0 l-223 -1 1 268 1
268 -13 3 c-8 1 -17 0 -21 -4z"/>
<path d="M7676 12271 c-4 -5 -2 -12 3 -15 20 -13 159 -18 210 -8 41 7 66 7 98
-3 44 -13 60 -7 50 20 -5 10 -43 13 -181 14 -100 1 -177 -3 -180 -8z"/>
<path d="M7627 12198 l-27 -20 0 -42 c0 -29 6 -48 18 -59 10 -10 21 -15 24
-12 3 3 11 -1 18 -10 34 -42 120 22 120 89 0 25 -55 83 -64 68 -3 -5 1 -15 9
-22 18 -15 20 -84 3 -98 -17 -13 -78 -21 -84 -10 -12 20 -5 90 10 107 24 27 6
33 -27 9z"/>
<path d="M7857 12182 c-44 -45 -46 -60 -9 -95 34 -32 90 -37 114 -9 24 27 19
83 -10 115 -34 36 -51 34 -95 -11z m92 -29 l13 -28 -23 -18 c-12 -10 -29 -15
-36 -12 -8 3 -21 5 -29 5 -17 0 -19 51 -2 68 22 22 64 14 77 -15z"/>
<path d="M7628 11933 c-36 -40 -35 -93 2 -128 19 -18 35 -25 46 -21 l16 6 -12
15 c-7 8 -18 15 -24 15 -21 0 -35 47 -23 75 10 20 19 25 48 25 19 0 40 -5 47
-12 17 -17 15 -83 -3 -98 -8 -7 -12 -17 -9 -22 3 -5 19 3 35 18 40 38 38 74
-6 119 -44 44 -81 46 -117 8z"/>
<path d="M7847 11912 c-31 -32 -32 -40 -13 -76 30 -59 78 -71 116 -31 32 34
37 96 10 120 -11 10 -26 15 -35 11 l-16 -6 26 -34 26 -34 -13 -22 c-10 -16
-21 -20 -48 -18 l-35 3 -3 33 c-2 21 3 41 13 52 27 30 0 31 -28 2z"/>
<path d="M15357 13422 c-12 -13 -17 -37 -17 -84 l0 -65 42 -28 42 -28 138 2
138 2 0 -19 c0 -12 -9 -22 -22 -25 l-22 -6 19 -23 c32 -37 45 -66 45 -97 0
-29 21 -57 33 -44 11 10 8 61 -3 68 -5 3 -10 17 -10 30 0 13 -5 27 -10 30 -7
4 -8 11 -1 18 5 7 11 25 13 42 2 19 11 34 26 41 34 17 52 58 52 119 0 38 -5
56 -18 68 l-19 17 -205 0 -205 0 -16 -18z m423 -80 c0 -32 -5 -63 -12 -70 -17
-17 -359 -17 -376 0 -7 7 -12 38 -12 70 l0 58 200 0 200 0 0 -58z"/>
<path d="M16137 13422 c-20 -22 -22 -43 -5 -60 18 -18 27 -15 38 13 l10 25
240 0 240 0 0 -81 c0 -60 -3 -80 -12 -76 -7 2 -12 9 -11 15 1 5 -7 18 -17 27
-11 10 -20 14 -20 10 0 -4 -9 0 -19 9 -24 21 -49 12 -30 -10 7 -8 18 -13 25
-10 24 9 48 -33 45 -77 -4 -65 -73 -127 -139 -127 -16 0 -35 -7 -42 -16 l-13
-15 22 -6 c12 -3 20 -12 19 -21 -2 -9 5 -18 16 -20 18 -4 35 2 101 36 37 18
96 73 90 82 -3 4 2 13 10 20 19 16 22 269 3 288 -9 9 -83 12 -273 12 l-262 0
-16 -18z m526 -271 c5 -20 -25 -53 -71 -79 -41 -23 -37 -4 9 47 50 56 55 58
62 32z m-123 -101 c0 -5 -7 -10 -15 -10 -8 0 -15 5 -15 10 0 6 7 10 15 10 8 0
15 -4 15 -10z"/>
<path d="M17167 13434 c-4 -4 -7 -202 -7 -439 l0 -433 14 -11 c17 -14 702 -12
724 2 35 23 -21 27 -349 27 l-349 0 0 428 1 427 -14 3 c-7 1 -16 0 -20 -4z"/>
<path d="M18000 13436 c0 -3 0 -199 0 -436 0 -236 0 -433 0 -437 0 -3 9 2 20
12 l20 18 -2 421 -3 421 -17 3 c-10 2 -18 1 -18 -2z"/>
<path d="M16375 13360 c-10 -11 -28 -20 -40 -20 -13 0 -28 -6 -35 -14 -6 -8
-18 -12 -25 -10 -21 9 -100 -69 -92 -90 8 -21 25 -12 37 20 6 14 18 27 27 31
10 3 24 11 31 17 18 13 95 8 104 -7 4 -7 5 -20 2 -30 -6 -18 20 -57 37 -57 11
0 39 59 39 82 0 13 7 18 28 18 16 0 32 3 35 7 11 11 -14 33 -38 33 -14 0 -25
7 -28 20 -4 14 -14 20 -35 20 -16 0 -37 -9 -47 -20z m45 -30 c0 -5 -4 -10 -10
-10 -5 0 -10 5 -10 10 0 6 5 10 10 10 6 0 10 -4 10 -10z m0 -60 c0 -5 -4 -10
-10 -10 -5 0 -10 5 -10 10 0 6 5 10 10 10 6 0 10 -4 10 -10z"/>
<path d="M17237 13362 l-17 -19 0 -356 0 -356 32 -15 31 -16 316 0 316 1 19
14 c44 33 46 50 46 394 l0 326 -19 24 c-13 17 -24 22 -36 17 l-18 -6 17 -19
16 -18 -2 -344 -3 -344 -338 -3 -337 -2 0 366 c1 202 -1 368 -3 370 -2 2 -11
-4 -20 -14z"/>
<path d="M17820 13274 l-11 -28 20 -19 20 -20 16 13 c25 20 16 74 -12 78 -17
3 -26 -4 -33 -24z"/>
<path d="M17326 13271 c-16 -26 27 -31 215 -29 l194 3 0 15 0 15 -202 3 c-113
1 -204 -2 -207 -7z"/>
<path d="M16184 13176 c-4 -10 -13 -15 -21 -12 -7 3 -16 -1 -20 -10 -7 -18 69
-101 107 -116 14 -5 26 -8 26 -6 1 2 11 -5 22 -15 23 -21 69 -19 64 2 -1 7 5
19 14 25 l16 12 -16 13 c-9 7 -27 11 -41 9 -14 -3 -30 1 -36 8 -6 8 -17 14
-23 14 -15 0 -56 42 -56 57 0 6 -7 16 -15 23 l-15 12 -6 -16z m32 -58 c11 -13
26 -32 34 -43 l15 -20 -20 15 c-36 26 -65 53 -65 62 0 15 16 8 36 -14z m94
-78 c-9 -6 -19 -5 -25 1 -6 6 -5 13 5 19 9 6 19 5 25 -1 6 -6 5 -13 -5 -19z"/>
<path d="M17594 13017 c-176 -178 -240 -252 -226 -261 5 -3 76 64 158 149 195
202 257 272 246 278 -4 3 -85 -71 -178 -166z"/>
<path d="M15424 13171 c-2 -2 -4 -19 -4 -37 0 -18 -5 -36 -11 -40 -6 -3 -9
-17 -6 -30 2 -13 -2 -29 -9 -35 -19 -16 -18 -103 0 -119 8 -6 12 -18 9 -26
-17 -45 118 -187 149 -156 10 10 6 14 -47 43 -30 17 -63 62 -64 90 -1 8 -6 20
-12 26 -6 6 -11 43 -11 83 0 40 5 77 11 83 6 6 11 16 11 22 0 23 25 62 45 71
11 5 18 14 15 19 -5 10 -67 15 -76 6z"/>
<path d="M17845 13128 c-3 -7 -4 -101 -3 -208 l3 -195 15 0 15 0 0 204 c0 155
-3 205 -12 208 -7 3 -15 -1 -18 -9z"/>
<path d="M15732 12938 c-7 -7 -12 -24 -12 -40 0 -37 -35 -97 -76 -131 -40 -33
-37 -52 4 -31 38 18 59 43 88 100 33 66 30 136 -4 102z"/>
<path d="M15105 12428 c-3 -7 -4 -132 -3 -278 l3 -265 124 -3 124 -3 17 16 c9
8 20 12 24 8 8 -8 107 87 101 98 -3 4 2 12 10 19 18 15 10 31 -10 23 -9 -3
-15 1 -15 11 0 18 11 21 26 6 15 -15 36 13 32 42 -2 15 -9 22 -20 20 l-18 -3
0 46 0 46 18 -3 c45 -8 8 105 -57 175 -47 51 -120 73 -104 32 4 -11 -3 -15
-29 -15 -52 0 -128 -88 -128 -149 0 -18 -6 -31 -17 -35 -10 -3 -24 -9 -31 -12
-10 -5 -13 18 -11 112 l1 119 -16 3 c-9 2 -18 -3 -21 -10z m320 -44 c25 -16
59 -73 50 -82 -3 -3 -13 2 -23 11 -35 31 -33 3 2 -52 13 -19 7 -189 -7 -215
-19 -34 -49 -66 -63 -66 -6 0 -17 -7 -24 -15 l-12 -15 17 -7 c13 -4 30 6 61
40 28 28 46 41 51 34 4 -6 -15 -30 -44 -56 l-51 -46 -121 3 -121 3 0 110 c0
60 3 109 7 109 14 0 53 -44 53 -60 0 -47 90 -154 111 -133 8 8 4 16 -15 28
-31 21 -59 75 -54 107 2 13 14 28 29 35 15 7 32 20 39 28 l13 16 -28 29 c-16
17 -35 30 -42 30 -19 0 -15 69 6 105 l18 30 47 3 c26 2 54 -2 61 -8 8 -7 16
-7 19 -2 3 6 -1 15 -9 22 -34 29 -10 40 30 14z m75 -124 c0 -19 -11 -26 -23
-14 -8 8 3 34 14 34 5 0 9 -9 9 -20z"/>
<path d="M9347 11674 c-4 -4 -7 -348 -7 -764 l0 -757 18 -16 19 -17 375 0 375
0 17 18 16 19 -2 759 -3 759 -18 0 -17 0 0 -757 0 -758 -370 0 -370 0 0 758 1
757 -14 3 c-7 1 -16 0 -20 -4z"/>
<path d="M6685 11567 c-3 -7 -4 -109 -3 -227 l3 -215 315 0 315 0 0 225 0 225
-313 3 c-248 2 -314 0 -317 -11z m595 -217 l0 -190 -280 0 -280 0 0 190 0 190
280 0 280 0 0 -190z"/>
<path d="M5037 11422 l-17 -19 0 -205 0 -205 18 -16 c24 -22 105 -23 122 -2 7
9 15 13 18 10 7 -7 42 25 42 39 0 6 14 17 31 25 l31 13 24 -12 c13 -8 27 -10
31 -7 3 4 14 0 24 -9 10 -9 27 -14 38 -11 11 3 25 -1 32 -9 13 -15 79 -19 107
-6 68 34 102 53 125 72 24 19 57 87 57 115 0 54 -56 121 -136 161 -57 29 -183
35 -204 10 -6 -8 -18 -12 -26 -9 -8 3 -20 1 -27 -5 -32 -27 -107 -11 -107 23
0 18 -34 45 -58 45 -11 0 -24 5 -27 10 -11 17 -80 12 -98 -8z m116 -34 l27
-13 0 -186 c0 -102 -2 -188 -4 -190 -2 -2 -29 -2 -59 -1 l-54 4 -6 99 c-3 54
-3 144 0 199 l6 100 31 0 c18 0 44 -6 59 -12z m444 -74 c59 -29 83 -65 83
-128 l0 -40 -42 -43 c-23 -24 -49 -43 -58 -43 -9 0 -20 -4 -25 -9 -16 -15
-132 -16 -149 -2 -9 8 -25 11 -36 8 -10 -3 -24 1 -31 9 -6 8 -17 14 -24 14
-11 0 -25 72 -26 130 0 46 18 95 39 106 13 6 28 16 32 20 5 5 49 8 97 6 69 -2
99 -8 140 -28z m-337 -54 c2 -30 2 -83 1 -117 l-1 -63 -20 0 -20 0 0 119 c0
86 3 121 13 124 20 7 25 -5 27 -63z"/>
<path d="M5024 10827 c-2 -7 -3 -109 -2 -227 l3 -215 175 0 175 0 3 209 2 209
-16 18 -17 19 -159 0 c-119 0 -160 -3 -164 -13z m106 -36 c0 -5 -7 -11 -15
-15 -11 -4 -15 -21 -15 -59 0 -49 -12 -77 -32 -77 -4 0 -8 36 -8 80 l0 80 35
0 c19 0 35 -4 35 -9z m170 -191 l0 -160 -80 0 -80 0 0 58 c0 59 11 82 41 82 9
0 22 6 28 14 9 10 6 17 -13 30 -14 9 -32 16 -41 16 -12 0 -15 13 -15 60 l0 60
80 0 80 0 0 -160z m-212 -47 c23 -52 11 -133 -20 -133 -4 0 -8 36 -8 80 0 84
7 97 28 53z"/>
    </g>
  </g>

</svg>