<?xml version="1.0" encoding="UTF-8"?>
<svg xmlns="http://www.w3.org/2000/svg"
     xmlns:xlink="http://www.w3.org/1999/xlink"
     viewBox="0 0 2304.000000 1856.000000"
     width="2304" height="1856"
     preserveAspectRatio="xMidYMid meet">

  <title>BIMIT Floor Plan - Model X</title>
  <desc>Architectural floor plan vectorized from raster source</desc>

  <defs>
    <style type="text/css">
      .floor-plan { fill: #1a1a1a; stroke: none; }
      .background { fill: #ffffff; }
    </style>
  </defs>

  <!-- Background -->
  <rect class="background" width="100%" height="100%"/>

  <!-- Floor Plan Geometry -->
  <g transform="translate(0.000000,1856.000000) scale(0.100000,-0.100000)"
class="floor-plan" stroke="none">
<path d="M7347 13613 c-4 -3 -7 -431 -7 -950 l0 -943 -1237 -2 -1238 -3 0
-765 0 -765 527 -3 528 -2 2 -1148 3 -1147 1040 0 1040 0 8 75 c5 41 11 233
13 427 l5 352 22 3 c12 2 29 0 37 -4 8 -4 41 -12 73 -19 32 -6 98 -30 145 -54
179 -90 305 -238 357 -421 10 -32 20 -63 23 -69 4 -5 5 -20 4 -32 -2 -11 2
-24 7 -28 15 -8 25 20 16 43 -4 9 -9 29 -10 44 -8 87 -113 276 -196 354 -118
110 -273 189 -387 199 -20 2 -44 6 -54 10 -9 3 -31 5 -50 3 l-33 -3 -3 -357
-2 -358 -765 0 -765 0 0 61 0 60 33 44 c17 24 48 67 67 95 19 28 52 75 73 103
20 28 36 56 34 61 -6 18 -51 46 -107 66 l-55 20 24 6 c38 11 124 60 135 76
l10 16 -59 81 c-32 44 -80 108 -106 141 l-48 59 -1 176 -2 175 106 149 c58 82
106 153 106 158 0 14 -66 57 -109 71 l-35 12 -9 -9 -9 -9 56 -25 c31 -14 56
-29 56 -33 0 -9 -110 -171 -164 -243 -23 -29 -48 -64 -56 -77 -8 -13 -24 -25
-35 -26 l-20 -3 -3 -37 -3 -38 -115 0 -114 0 0 500 0 500 120 0 120 0 0 -30
c0 -17 6 -33 13 -35 6 -3 35 -36 64 -73 72 -92 203 -270 203 -275 0 -9 -98
-46 -152 -57 -82 -16 -88 -36 -13 -42 17 -2 30 1 30 6 0 4 28 19 63 32 35 13
76 33 93 44 l29 21 -17 27 c-10 15 -59 83 -110 152 l-93 125 0 52 0 52 43 3
42 3 2 95 c4 127 17 186 63 279 l39 77 60 61 c64 66 161 126 247 152 29 10 56
19 58 22 3 3 21 3 41 1 l35 -4 0 -277 0 -277 9 -9 c6 -6 11 -35 13 -65 l3 -55
43 -3 42 -3 0 -529 0 -529 9 -5 c5 -4 78 -7 163 -9 l153 -2 3 32 3 33 327 2
327 3 0 385 0 385 -13 0 -13 0 1 -372 0 -373 -15 0 -15 0 0 373 1 372 -21 3
-22 4 9 16 c4 9 9 634 10 1387 0 754 2 1402 2 1442 l1 71 620 -1 620 -1 1
-496 c1 -272 5 -886 8 -1365 l6 -870 395 0 395 0 1 15 c1 8 3 20 4 25 2 6 3
744 4 1640 l1 1630 45 0 45 0 3 -351 2 -352 15 -12 14 -12 13 8 c7 5 27 7 45
5 18 -1 38 1 44 5 6 4 26 8 43 9 44 3 177 61 248 108 117 78 225 208 277 335
30 73 61 193 61 236 l0 26 345 0 345 0 2 -427 3 -428 1390 -2 c765 0 1494 -2
1622 -2 l232 -1 1 -1406 c0 -773 3 -1410 6 -1415 3 -5 29 -9 59 -9 30 0 57 -4
60 -10 l6 -10 362 0 363 0 -2 -42 c-1 -24 -5 -50 -9 -59 -3 -9 -5 -20 -4 -25
1 -5 -1 -16 -4 -24 -4 -8 -14 -35 -22 -60 -44 -126 -155 -265 -279 -348 l-72
-48 -90 -28 c-49 -16 -96 -31 -104 -34 -8 -2 -27 -4 -42 -3 -15 1 -32 -1 -39
-4 -6 -4 -52 -8 -102 -9 l-91 -1 3 -1360 c1 -747 5 -1363 8 -1368 2 -4 111 -7
241 -6 l237 1 0 -288 0 -288 -185 -113 c-102 -63 -225 -140 -275 -172 -96 -62
-243 -155 -416 -264 l-106 -67 -562 0 -562 0 -77 45 c-42 25 -225 136 -407
246 -181 110 -358 216 -392 237 l-63 36 -2 346 -3 345 -314 3 c-173 1 -318 -1
-322 -5 -5 -5 -9 -137 -10 -295 l-1 -288 -22 0 c-40 -1 -2561 -2 -2603 -1
l-43 1 -2 1123 -3 1122 -166 3 -167 2 -5 21 -6 21 -11 -7 -11 -7 2 -66 c1 -37
5 -80 9 -97 l6 -30 84 -5 85 -5 5 -1130 5 -1130 1505 0 1505 0 3 298 2 297
155 0 155 0 0 -309 0 -310 28 -19 c27 -19 381 -236 508 -311 33 -20 116 -70
183 -111 67 -41 150 -90 184 -109 34 -19 81 -47 105 -62 l43 -29 617 0 617 0
250 156 c138 85 266 166 285 179 19 13 112 71 205 131 94 59 200 127 237 150
l67 44 1318 2 1318 3 0 3075 0 3075 -437 3 -438 2 0 315 0 315 438 2 437 3 0
595 0 595 -1609 3 -1610 2 -9 -9 -9 -9 0 -406 0 -406 -1534 0 -1534 0 -2 423
-3 422 -443 0 -442 0 -4 -101 c-6 -132 -21 -212 -57 -303 -52 -130 -164 -266
-281 -342 -64 -41 -196 -99 -226 -99 -10 0 -22 -3 -25 -6 -4 -4 -28 -7 -54 -7
l-48 0 -5 415 -5 415 -14 17 -14 17 -136 -3 -136 -3 -3 -892 -2 -893 -230 0
-229 0 -3 132 -3 132 -72 -1 -73 -2 0 319 0 319 73 -2 72 -1 0 444 0 445 -420
0 -420 0 5 -10 5 -10 155 -2 c85 -1 167 -2 183 -2 l27 -1 0 -20 0 -20 -485 0
-485 0 0 19 c0 10 7 22 16 25 8 3 12 10 9 16 l-6 10 -373 0 c-205 0 -376 -3
-379 -7z m9383 -68 l0 -25 -315 0 -315 0 0 25 0 25 315 0 315 0 0 -25z m-7680
-50 l0 -25 -487 0 -488 0 -1 25 -2 25 489 0 489 0 0 -25z m7680 -30 l0 -25
-315 0 -315 0 0 25 0 25 315 0 315 0 0 -25z m-7390 -292 l0 -273 -637 -2 -638
-3 -3 -1444 c-1 -795 -5 -1447 -8 -1450 -3 -3 -125 -8 -270 -9 l-264 -4 0
1729 0 1730 910 -1 910 -1 0 -272z m8658 -175 l2 -418 -405 0 -405 0 0 414 0
414 13 5 c6 2 188 4 402 3 l390 -1 3 -417z m-2658 349 l0 -63 29 -28 30 -29
155 2 154 2 6 -10 6 -9 28 14 c38 18 66 50 57 64 l-7 12 -19 -21 -20 -21 -167
-1 c-92 -1 -174 -1 -182 1 -27 3 -40 33 -40 92 l0 58 208 0 207 0 0 -27 c0
-16 5 -29 10 -30 10 -3 11 1 14 37 l1 20 165 0 165 0 0 -125 0 -126 15 -28
c31 -62 171 -147 205 -126 16 10 3 22 -32 29 -45 9 -126 64 -143 97 l-15 28 0
126 0 125 250 0 250 0 0 -130 0 -130 -35 -39 c-36 -39 -126 -87 -157 -82 -20
2 -33 -15 -18 -24 6 -4 19 -4 28 0 9 4 28 9 41 11 36 5 129 70 151 107 l20 32
0 128 0 127 230 0 230 0 0 -411 0 -412 -15 -11 -15 -11 -1 -398 0 -397 -44 0
-45 0 -2 323 -3 322 -65 -2 -65 -1 -80 -26 c-109 -35 -195 -87 -280 -171 l-71
-70 -36 -65 c-48 -86 -80 -182 -84 -250 l-3 -55 -615 -3 -616 -2 0 59 0 59
139 4 139 3 39 31 c36 29 94 117 91 139 -1 6 2 18 6 28 10 21 0 50 -15 42 -5
-4 -9 -17 -7 -29 1 -12 -10 -46 -25 -76 l-27 -55 -37 -27 -36 -28 -129 0 -128
0 0 243 0 243 12 12 11 11 -16 7 -17 6 0 484 0 484 110 0 110 0 0 -63z m-820
-627 l0 -20 -810 0 -810 0 0 20 0 20 810 0 810 0 0 -20z m0 -75 l0 -25 -17 -1
c-10 0 -370 -1 -801 -1 l-783 -1 -11 11 c-6 6 -8 18 -5 26 l6 16 806 0 805 0
0 -25z m2480 -578 l0 -323 9 -10 c6 -5 11 -36 13 -69 l3 -60 492 -3 493 -2 2
-168 3 -167 33 3 32 4 0 -427 0 -427 -32 4 -33 3 -3 -147 -3 -148 -402 -2
-402 -3 1 -85 1 -85 14 -1 c8 -1 188 -2 402 -3 l387 -1 0 -2075 0 -2075 -27
-1 c-105 -4 -2358 3 -2362 7 -3 3 -4 149 -4 325 1 177 -2 332 -7 345 l-10 24
-240 0 -240 0 2 1272 3 1273 36 -3 c21 -2 40 2 44 7 3 6 10 9 15 6 15 -9 129
24 192 55 123 61 225 148 293 250 50 75 96 172 100 210 1 14 6 33 10 43 4 10
5 21 1 24 -3 3 -1 11 4 18 5 6 9 36 7 66 l-2 54 -353 3 -352 2 0 85 0 85 599
0 599 0 11 14 12 14 -3 74 -3 73 -607 3 -608 2 0 735 0 735 623 2 622 3 1 88
c1 48 5 91 8 94 3 4 6 22 6 42 0 58 55 199 106 273 58 85 144 163 234 212 70
38 191 74 248 75 l32 1 0 -323z m-6878 -1157 l3 -750 -372 0 -373 0 0 750 0
750 370 0 370 0 2 -750z m-3440 422 l3 -207 303 -3 302 -2 0 -380 0 -380 -80
0 -80 0 0 53 c-1 28 -2 149 -3 267 l-2 215 -44 3 c-24 2 -51 0 -60 -4 -9 -3
-27 -8 -41 -9 -14 -2 -50 -12 -81 -24 -182 -69 -333 -242 -375 -430 l-16 -71
-729 0 -729 0 0 10 0 10 163 2 162 3 0 220 0 220 -162 3 -163 2 0 65 0 65 39
0 c22 0 42 4 46 10 3 5 11 7 18 4 17 -6 67 33 67 52 l0 14 28 0 c15 0 32 4 38
10 l10 10 59 -25 60 -25 56 0 c67 0 109 13 166 51 l41 29 22 45 22 45 -8 18
c-4 9 -6 25 -5 34 1 10 -20 40 -47 67 l-50 49 -53 16 c-72 22 -121 20 -208 -8
l-74 -24 -5 -18 c-9 -41 -14 -165 -7 -181 4 -10 8 -28 9 -40 l2 -23 -28 0 -28
0 0 125 0 125 14 0 c24 0 30 21 8 27 -11 3 -23 16 -27 30 l-6 24 -34 15 c-19
8 -55 14 -80 14 l-45 0 0 54 0 55 17 3 c9 2 376 2 815 0 l798 -2 2 -208z m608
18 l0 -200 -290 0 -290 0 0 195 0 195 258 2 c141 2 272 4 290 6 l32 2 0 -200z
m-2126 40 l26 -10 0 -179 0 -180 -27 -18 -28 -18 -42 3 -43 3 0 205 0 204 44
0 c25 0 56 -4 70 -10z m385 -50 c53 -15 110 -60 130 -101 l18 -37 -13 -38
c-16 -47 -70 -97 -122 -112 -87 -26 -204 -9 -250 38 l-25 25 2 80 2 80 14 22
c28 43 162 67 244 43z m12611 -495 l0 -425 -25 0 -25 0 0 425 0 425 25 0 25 0
0 -425z m-12810 -240 c0 -107 -3 -195 -7 -195 -5 0 -8 84 -8 187 l0 188 -94 3
-94 3 -23 -22 -24 -22 0 -53 0 -53 -19 -11 c-11 -5 -22 -10 -25 -10 -3 0 -6
41 -6 90 l0 90 150 0 150 0 0 -195z m-40 -5 l0 -160 -79 0 -79 0 -20 28 -21
27 -6 -18 -7 -17 13 -16 c7 -9 22 -20 34 -24 l20 -9 -57 0 -58 -1 0 90 0 90
24 -12 25 -11 3 -31 c4 -40 22 -40 26 1 l3 31 37 9 37 9 0 18 0 19 -25 4 c-13
2 -28 7 -33 12 -11 11 -21 86 -14 106 l6 15 86 0 85 0 0 -160z m2780 -1035 l0
-365 -285 0 -285 0 0 365 0 365 285 0 285 0 0 -365z m-1754 -531 c1 -37 10
-54 29 -54 7 0 15 -6 18 -13 3 -7 40 -60 84 -117 43 -58 95 -128 116 -157 l37
-51 -32 -17 c-18 -10 -66 -27 -107 -39 -40 -11 -72 -25 -70 -31 1 -5 30 -16
63 -22 34 -7 78 -20 99 -29 l38 -17 -5 -13 c-9 -24 -183 -269 -205 -288 -11
-11 -21 -25 -21 -32 0 -7 -10 -14 -22 -16 l-23 -3 -3 -42 -3 -43 -115 0 -114
0 0 510 0 511 118 -3 117 -3 1 -31z m5054 -3289 l0 -25 -835 0 -835 0 0 25 0
25 835 0 835 0 0 -25z m5895 0 l0 -20 -442 -3 -443 -2 0 25 0 25 443 -2 442
-3 0 -20z m-5895 -80 l0 -25 -835 0 -835 0 0 25 0 25 835 0 835 0 0 -25z
m5898 -2 l3 -23 -445 0 -446 0 0 25 0 25 443 -2 442 -3 3 -22z m-1960 -43 l12
-20 -97 -63 c-116 -74 -265 -168 -575 -362 l-78 -48 -15 13 c-8 7 -15 16 -15
19 0 7 122 86 495 320 105 65 204 128 220 139 38 26 38 26 53 2z m-2639 -137
c124 -75 295 -177 378 -227 84 -50 153 -96 153 -102 0 -6 -6 -16 -13 -22 l-13
-11 -88 52 c-48 29 -95 57 -104 62 -496 298 -567 343 -566 355 3 26 5 30 15
30 7 0 113 -61 238 -137z m2685 70 c4 -9 3 -20 -1 -23 -29 -26 -739 -470 -751
-470 -6 0 -13 8 -16 17 l-7 17 23 18 c13 9 106 70 208 134 102 63 259 163 350
220 91 57 170 104 176 104 7 0 15 -8 18 -17z m-2821 -79 c78 -48 155 -94 170
-103 16 -9 48 -28 70 -42 23 -14 120 -72 215 -129 94 -57 172 -108 172 -114 0
-6 -4 -17 -9 -25 l-9 -14 -199 120 c-109 66 -225 136 -258 155 -57 34 -255
154 -302 184 l-23 14 12 20 c7 11 14 20 16 20 2 0 67 -39 145 -86z m1777 -399
l0 -25 -440 0 -440 0 0 25 0 25 440 0 440 0 0 -25z m0 -70 l0 -25 -440 0 -440
0 0 20 0 20 438 3 c240 1 438 3 440 5 1 1 2 -9 2 -23z"/>
<path d="M8210 13400 l-20 -20 0 -210 0 -210 20 -20 20 -20 338 0 338 0 12 12
c15 15 16 45 1 53 l-10 7 -6 -21 -5 -21 -334 0 -334 0 -5 23 c-3 12 -4 110 -3
217 l3 195 140 3 140 3 -22 -16 c-13 -9 -23 -23 -23 -31 l0 -14 -99 0 -99 0
-11 -14 -12 -14 3 -158 3 -159 153 -3 154 -3 14 12 14 11 0 153 0 153 -19 13
-20 14 6 28 5 27 172 -2 171 -3 5 -30 c7 -41 24 -38 28 5 l4 34 -18 13 -18 13
-333 0 -333 0 -20 -20z m236 -129 l-29 -30 7 -17 7 -18 48 48 c27 27 54 45 60
42 l11 -7 0 -139 0 -139 -140 -3 -140 -3 0 148 0 147 102 0 102 0 -28 -29z"/>
<path d="M8615 13320 c-11 -17 16 -21 136 -18 l114 3 0 10 0 10 -122 3 -121 3
-7 -11z"/>
<path d="M8625 13260 c-11 -17 16 -21 131 -18 l109 3 0 10 0 10 -117 3 -116 3
-7 -11z"/>
<path d="M8644 13199 c-8 -14 9 -16 106 -15 l95 1 0 10 0 10 -98 1 c-54 0
-100 -3 -103 -7z"/>
<path d="M8645 13150 c-10 -17 16 -21 121 -18 l99 3 0 10 0 10 -107 3 -106 3
-7 -11z"/>
<path d="M8675 13090 c-9 -15 8 -18 95 -16 l85 1 0 10 0 10 -88 2 c-48 0 -89
-3 -92 -7z"/>
<path d="M8615 13030 c-11 -17 16 -21 136 -18 l114 3 0 10 0 10 -122 3 -121 3
-7 -11z"/>
<path d="M7545 12267 c-3 -7 -4 -134 -3 -282 l3 -270 250 0 250 0 3 269 2 269
-11 13 -11 14 -240 0 -239 0 -4 -13z m475 -272 l0 -255 -225 0 -225 0 0 255 0
255 225 0 225 0 0 -255z"/>
<path d="M7616 12189 c-30 -35 -32 -58 -11 -99 l15 -28 33 -11 34 -12 24 10
c13 5 33 18 44 30 l19 22 0 35 0 35 -26 26 -26 25 -11 -7 -12 -7 26 -23 25
-24 0 -26 c0 -32 -33 -65 -65 -65 -32 0 -65 33 -65 65 l0 26 25 23 c22 21 24
36 4 36 -4 0 -19 -14 -33 -31z"/>
<path d="M7857 12190 l-26 -21 2 -34 c2 -18 11 -43 21 -54 l19 -21 32 0 32 0
22 24 23 24 -10 6 c-5 3 -15 -1 -22 -9 -7 -8 -27 -15 -46 -15 l-33 0 -11 19
-10 20 10 25 10 26 34 0 35 0 11 -20 c6 -11 15 -18 21 -15 14 9 11 23 -11 45
-26 26 -70 26 -103 0z"/>
<path d="M7644 11946 l-31 -14 -12 -29 c-15 -36 -7 -75 20 -99 l20 -18 43 -2
44 -3 20 22 c11 12 23 32 27 45 l7 23 -13 30 c-11 29 -54 59 -81 59 -7 -1 -27
-7 -44 -14z m92 -40 c21 -33 15 -65 -17 -88 l-25 -19 -29 11 c-16 6 -33 17
-37 23 -14 22 -8 57 12 77 l20 20 30 0 30 0 16 -24z"/>
<path d="M7850 11915 l-22 -24 7 -12 8 -12 17 23 17 23 27 0 c15 0 35 -8 45
-17 l19 -17 6 10 c4 6 -2 19 -13 30 l-19 19 -35 0 -35 0 -22 -23z"/>
<path d="M7835 11851 c-6 -11 11 -50 23 -52 4 -1 24 -3 45 -4 l38 -3 21 18 21
17 -7 19 -7 19 -17 -23 c-10 -12 -28 -24 -40 -27 l-24 -4 -23 25 -23 25 -7
-10z"/>
<path d="M17237 13362 l-17 -19 0 -350 0 -350 18 -16 19 -17 340 0 340 0 16
18 17 19 0 350 0 350 -19 17 -19 17 -39 -3 c-51 -4 -48 -22 5 -26 l42 -3 -2
-352 -3 -352 -340 0 -340 0 -3 353 -2 352 40 1 c56 2 60 3 63 14 1 5 -21 11
-48 13 l-51 3 -17 -19z"/>
<path d="M17833 13293 c-3 -10 -13 -22 -20 -26 l-14 -9 25 -25 26 -26 24 24
23 24 -28 28 -29 28 -7 -18z"/>
<path d="M17335 13270 c-11 -18 17 -21 210 -18 l190 3 0 10 0 10 -197 3 -197
2 -6 -10z"/>
<path d="M17696 13119 c-42 -39 -137 -136 -212 -215 l-137 -145 9 -9 9 -9 213
219 c117 120 208 221 203 225 -6 3 -44 -26 -85 -66z"/>
<path d="M17855 13110 c-4 -6 -5 -23 -4 -38 1 -15 -1 -34 -4 -42 -3 -8 -5 -76
-4 -150 l2 -135 10 0 10 0 1 117 c0 65 3 121 7 124 3 3 2 17 -3 30 l-9 23 9 6
c13 8 13 62 1 70 -5 3 -13 1 -16 -5z"/>
<path d="M16380 13355 l-23 -25 -29 0 c-43 0 -91 -24 -122 -61 l-28 -33 5 -44
5 -44 38 -39 c20 -21 58 -45 82 -54 54 -18 149 -20 203 -3 42 12 112 67 130
100 l11 20 -10 10 -9 9 -18 -27 c-46 -70 -98 -94 -209 -94 l-70 0 -44 21 c-50
25 -82 69 -82 115 l0 30 21 23 c29 31 65 43 124 40 l50 -3 3 27 c2 15 8 27 14
27 l10 0 -6 -22 c-3 -13 -6 -31 -6 -40 0 -10 -6 -17 -12 -15 -17 3 -22 -41 -7
-59 l12 -15 18 17 19 17 0 33 0 33 43 3 c51 4 90 -14 119 -53 l22 -29 9 9 9 9
-11 20 c-15 29 -69 65 -86 58 -8 -3 -17 -1 -20 4 -4 6 -15 10 -25 10 -10 0
-31 11 -46 25 -15 14 -34 25 -44 25 -9 0 -27 -11 -40 -25z"/>
<path d="M15465 13170 c-4 -6 -14 -9 -23 -8 l-17 3 -6 -40 c-3 -22 -11 -53
-18 -68 -14 -35 -15 -144 -1 -152 6 -4 8 -10 5 -15 -7 -12 31 -88 59 -118 11
-13 34 -31 50 -39 l28 -15 10 10 10 10 -28 15 c-41 21 -80 65 -100 112 l-17
40 2 70 2 70 20 45 c11 24 27 52 35 61 l15 17 -10 6 c-5 4 -13 2 -16 -4z"/>
<path d="M15666 13173 c-3 -4 3 -17 15 -29 12 -13 30 -47 40 -76 16 -48 36
-65 33 -28 -3 35 -30 116 -39 119 -5 2 -17 7 -26 12 -9 4 -19 5 -23 2z"/>
<path d="M15736 12943 c-3 -3 -6 -18 -6 -33 0 -14 -15 -50 -32 -80 l-33 -53
-38 -20 -38 -20 9 -9 10 -10 28 15 c59 31 123 127 124 184 0 23 -13 37 -24 26z"/>
<path d="M15345 12430 c-3 -6 2 -13 12 -16 55 -17 83 -37 111 -80 l32 -47 6
-49 c7 -52 20 -70 31 -42 10 26 -14 101 -48 150 -45 65 -126 113 -144 84z"/>
<path d="M15254 12355 c-19 -21 -33 -44 -30 -51 3 -7 1 -16 -4 -19 -6 -4 -10
-19 -10 -35 l0 -29 -14 5 -14 5 -16 -32 c-9 -18 -16 -41 -16 -51 l0 -20 30
-11 30 -11 0 -23 c0 -12 4 -24 10 -28 5 -3 7 -12 4 -20 -7 -17 29 -71 58 -86
l20 -11 10 10 9 9 -24 16 c-13 9 -33 31 -43 49 l-19 33 3 38 3 37 22 1 c12 1
26 1 31 0 13 -3 36 20 36 35 0 8 -12 19 -26 24 l-26 10 -14 -11 -14 -11 -4 13
c-3 8 -6 34 -8 58 l-4 43 38 43 38 44 -10 6 c-6 4 -27 -10 -46 -30z"/>
<path d="M15447 12303 c-4 -3 -1 -16 7 -27 l14 -22 -2 -91 -1 -91 -30 -44
c-17 -23 -43 -49 -58 -56 -25 -12 -29 -32 -6 -32 20 0 93 78 110 118 l19 44 0
53 c0 30 -5 66 -12 82 -6 15 -12 34 -14 42 -4 19 -19 33 -27 24z"/>
<path d="M18005 11218 c-3 -8 -5 -161 -3 -339 l3 -324 10 0 10 0 3 329 3 329
-10 10 -10 10 -6 -15z"/>
<path d="M8195 13609 c-9 -13 8 -16 85 -15 l75 1 0 10 0 10 -78 1 c-42 1 -80
-2 -82 -7z"/>
<path d="M8375 13611 c-10 -17 17 -23 82 -19 79 4 73 22 -8 26 l-67 3 -7 -10z"/>
<path d="M8535 13609 c-8 -12 7 -16 60 -15 28 0 52 6 55 11 l5 10 -58 1 c-31
1 -60 -2 -62 -7z"/>
  </g>

</svg>