<svg xmlns="http://www.w3.org/2000/svg" viewBox="0 0 2208 1920" width="2208" height="1920" fill="none">
    <g stroke="#7e4a45" stroke-width="6" stroke-linecap="round" stroke-linejoin="round">
    <path d="M 1528.359 421.237 A 47.006 47.006 0 0 1 1574.302 373.192" /><path d="M 748.282 585.645 A 46.063 46.063 0 0 1 706.362 535.781" /><path d="M 973.650 536.363 A 47.183 47.183 0 0 1 929.335 586.250" /><path d="M 814.261 539.747 A 44.829 44.829 0 0 1 770.765 585.872" /><path d="M 425.831 631.404 A 44.619 44.619 0 0 1 476.334 593.574" /><path d="M 621.261 752.744 A 47.469 47.469 0 0 1 571.734 798.061" /><path d="M 1571.898 876.446 A 48.520 48.520 0 0 1 1526.446 825.041" /><path d="M 1299.231 841.003 A 20.236 20.236 0 0 1 1292.102 868.718" /><path d="M 1291.193 870.292 A 38.998 38.998 0 0 1 1238.046 885.027" /><path d="M 425.808 926.168 A 45.763 45.763 0 0 1 476.124 885.465" /><path d="M 426.389 1102.637 A 45.405 45.405 0 0 1 474.599 1060.223" /><path d="M 333.845 1112.235 A 47.089 47.089 0 0 1 290.145 1162.484" /><path d="M 1412.428 1303.357 A 41.262 41.262 0 0 1 1375.316 1348.388" /><path d="M 1164.712 1460.189 A 46.610 46.610 0 0 1 1217.823 1421.146" /><path d="M 1124.396 1422.071 A 38.566 38.566 0 0 1 1165.758 1457.621" />
    </g>
    </svg>