<svg xmlns="http://www.w3.org/2000/svg" viewBox="0 0 2048 2080" width="2048" height="2080" fill="none">
    <g stroke="#7e4a45" stroke-width="6" stroke-linecap="round" stroke-linejoin="round">
    <path d="M 429.149 276.369 A 41.432 41.432 0 0 1 467.405 320.750" /><path d="M 467.573 558.981 A 39.465 39.465 0 0 1 505.955 518.462" /><path d="M 439.847 705.692 A 34.124 34.124 0 0 1 404.143 673.225" /><path d="M 550.055 699.627 A 35.121 35.121 0 0 1 582.818 736.957" /><path d="M 627.795 745.736 A 35.563 35.563 0 0 1 591.720 780.781" /><path d="M 452.165 789.308 A 35.428 35.428 0 0 1 414.050 756.788" /><path d="M 607.974 868.524 A 36.867 36.867 0 0 1 569.539 903.753" /><path d="M 456.520 963.774 A 40.840 40.840 0 0 1 498.625 924.239" /><path d="M 515.997 969.976 A 34.914 34.914 0 0 1 547.436 1008.049" /><path d="M 1028.756 1017.814 A 41.221 41.221 0 0 1 1074.401 1054.075" /><path d="M 1075.747 1057.381 A 46.201 46.201 0 0 1 1127.621 1017.655" /><path d="M 878.823 1218.898 A 37.184 37.184 0 0 1 915.891 1181.597" /><path d="M 515.339 1305.557 A 38.196 38.196 0 0 1 555.526 1269.461" /><path d="M 915.298 1340.090 A 39.164 39.164 0 0 1 878.473 1298.720" /><path d="M 956.385 1297.358 A 40.310 40.310 0 0 1 992.275 1341.649" /><path d="M 497.997 1387.878 A 40.201 40.201 0 0 1 534.848 1344.586" /><path d="M 493.661 1479.010 A 41.116 41.116 0 0 1 532.332 1522.433" /><path d="M 780.135 1512.681 A 39.421 39.421 0 0 1 738.252 1475.886" /><path d="M 532.567 1528.011 A 40.722 40.722 0 0 1 495.921 1572.436" /><path d="M 1012.962 1563.924 A 38.183 38.183 0 0 1 971.729 1529.056" /><path d="M 818.008 1537.908 A 35.416 35.416 0 0 1 784.882 1575.474" />
    </g>
    </svg>