<svg xmlns="http://www.w3.org/2000/svg" viewBox="0 0 2048 2080" fill="black">
    <path d="M 1484 1577 L 1484 1580 L 1485 1581 L 1485 1587 L 1486 1588 L 1497 1588 L 1497 1587 L 1498 1586 L 1498 1585 L 1497 1584 L 1498 1583 L 1498 1580 L 1496 1578 L 1495 1578 L 1494 1577 L 1488 1577 L 1487 1576 L 1486 1576 L 1485 1577 Z" /><path d="M 1341 1566 L 1339 1566 L 1338 1565 L 1337 1566 L 1336 1565 L 1332 1564 L 1329 1566 L 1329 1568 L 1328 1569 L 1313 1573 L 1313 1586 L 1316 1586 L 1317 1587 L 1318 1586 L 1319 1587 L 1325 1587 L 1331 1590 L 1339 1591 L 1340 1589 L 1340 1577 L 1341 1576 L 1340 1574 L 1341 1573 L 1341 1569 L 1342 1568 Z" /><path d="M 1008 1563 L 1008 1707 L 996 1709 L 996 1725 L 1069 1725 L 1066 1723 L 1068 1709 L 1029 1709 L 1027 1702 L 1013 1702 L 1013 1565 Z" /><path d="M 818 1539 L 819 1540 L 864 1540 L 865 1539 L 865 1536 L 864 1535 L 821 1535 L 819 1536 L 819 1538 Z" /><path d="M 775 1511 L 775 1707 L 749 1707 L 759 1711 L 757 1725 L 840 1725 L 838 1709 L 806 1709 L 806 1692 L 779 1692 L 779 1542 L 786 1541 L 786 1536 L 779 1534 L 779 1513 Z" /><path d="M 1654 1448 L 1654 1457 L 1667 1457 L 1667 1447 L 1655 1447 Z" /><path d="M 1317 1447 L 1317 1452 L 1318 1453 L 1318 1455 L 1319 1456 L 1326 1456 L 1328 1458 L 1344 1458 L 1345 1457 L 1345 1449 L 1346 1448 L 1346 1447 L 1345 1446 L 1318 1446 Z" /><path d="M 1485 1445 L 1484 1446 L 1484 1456 L 1485 1457 L 1495 1457 L 1495 1446 L 1494 1445 Z" /><path d="M 545 1443 L 534 1532 L 665 1532 L 665 1725 L 720 1725 L 720 1709 L 693 1709 L 682 1697 L 682 1519 L 669 1516 L 669 1479 L 682 1476 L 682 1442 L 773 1442 L 777 1476 L 777 1437 L 760 1437 L 760 1411 L 754 1437 L 683 1437 L 683 1411 L 646 1411 L 646 1451 Z" /><path d="M 936 1409 L 927 1410 L 927 1438 L 840 1438 L 840 1454 L 926 1454 L 926 1705 L 884 1705 L 886 1725 L 960 1725 L 960 1709 L 938 1704 L 938 1520 L 1005 1520 L 1009 1529 L 1024 1498 L 1024 1440 L 1007 1440 L 1005 1452 L 939 1452 Z" /><path d="M 497 1380 L 482 1380 L 482 1516 L 401 1516 L 351 1401 L 335 1405 L 391 1532 L 494 1532 L 494 1518 L 486 1515 L 486 1387 Z" /><path d="M 320 1357 L 321 1358 L 321 1363 L 322 1364 L 322 1365 L 323 1366 L 323 1367 L 324 1368 L 324 1369 L 324 1366 L 325 1365 L 328 1365 L 330 1363 L 330 1362 L 331 1361 L 332 1361 L 333 1362 L 333 1363 L 334 1362 L 337 1362 L 337 1360 L 335 1358 L 332 1360 L 327 1360 L 326 1359 L 325 1359 L 324 1360 L 323 1360 Z" /><path d="M 1484 1327 L 1484 1329 L 1483 1330 L 1483 1332 L 1484 1333 L 1484 1335 L 1492 1335 L 1493 1336 L 1494 1335 L 1498 1335 L 1498 1334 L 1499 1333 L 1499 1327 L 1498 1326 L 1497 1327 L 1496 1327 L 1495 1326 L 1490 1326 L 1489 1327 Z" /><path d="M 307 1308 L 312 1328 L 328 1320 L 543 1320 L 543 1347 L 552 1349 L 552 1378 L 534 1383 L 557 1383 L 557 1307 L 551 1315 L 325 1315 L 322 1307 Z" /><path d="M 1314 1200 L 1314 1203 L 1313 1204 L 1314 1205 L 1314 1208 L 1315 1208 L 1316 1209 L 1317 1209 L 1318 1208 L 1319 1209 L 1321 1209 L 1322 1208 L 1323 1209 L 1324 1209 L 1325 1208 L 1326 1209 L 1327 1208 L 1327 1200 L 1323 1200 L 1322 1199 L 1321 1200 L 1318 1200 L 1317 1199 L 1316 1200 L 1315 1199 Z" /><path d="M 283 1197 L 299 1277 L 301 1274 L 303 1274 L 304 1277 L 304 1274 L 307 1272 L 312 1272 L 314 1275 L 310 1254 L 328 1248 L 325 1225 L 322 1223 L 304 1225 L 301 1218 L 298 1197 L 297 1199 L 287 1199 L 286 1201 Z" /><path d="M 757 1188 L 757 1194 L 752 1197 L 751 1202 L 752 1208 L 751 1209 L 751 1215 L 752 1216 L 751 1217 L 752 1218 L 751 1224 L 752 1225 L 797 1225 L 798 1224 L 798 1197 L 792 1195 L 792 1190 L 790 1188 L 783 1188 L 782 1189 L 781 1188 L 777 1189 L 776 1188 Z" /><path d="M 276 1143 L 276 1147 L 277 1148 L 276 1150 L 277 1151 L 277 1156 L 278 1157 L 277 1158 L 278 1166 L 279 1167 L 279 1170 L 279 1165 L 280 1164 L 282 1165 L 283 1169 L 284 1170 L 284 1176 L 285 1177 L 285 1179 L 285 1177 L 284 1176 L 284 1164 L 285 1163 L 291 1163 L 291 1160 L 285 1160 L 282 1158 L 280 1159 L 278 1158 L 278 1156 L 277 1155 L 277 1148 L 276 1147 L 277 1146 L 276 1145 Z" /><path d="M 1823 1048 L 1822 1049 L 1822 1066 L 1823 1067 L 1836 1067 L 1836 1066 L 1837 1065 L 1837 1049 L 1836 1049 L 1835 1048 Z" /><path d="M 1662 1048 L 1656 1049 L 1655 1054 L 1656 1056 L 1655 1057 L 1656 1058 L 1655 1059 L 1656 1061 L 1655 1065 L 1656 1066 L 1655 1068 L 1656 1070 L 1655 1071 L 1656 1072 L 1655 1074 L 1655 1121 L 1671 1121 L 1672 1120 L 1672 1049 Z" /><path d="M 568 902 L 568 980 L 585 986 L 550 986 L 547 1007 L 603 1007 L 603 1307 L 662 1307 L 662 1362 L 681 1362 L 681 1332 L 754 1332 L 760 1361 L 760 1301 L 878 1301 L 615 1301 L 615 1242 L 636 1239 L 636 1214 L 615 1211 L 615 977 L 573 977 Z" /><path d="M 738 1301 L 740 1299 L 742 1299 L 743 1300 L 753 1300 L 755 1302 L 755 1303 L 756 1304 L 756 1315 L 754 1317 L 739 1317 L 738 1316 Z" /><path d="M 511 795 L 493 795 L 493 922 L 495 924 L 498 923 L 498 868 L 500 866 L 513 866 Z" /><path d="M 287 807 L 287 1127 L 289 1117 L 273 1034 L 493 1034 L 493 1063 L 552 1063 L 552 1270 L 552 1061 L 499 1061 L 512 1001 L 498 962 L 492 981 L 313 981 L 313 861 L 448 861 L 448 908 L 448 790 L 444 789 L 444 848 L 318 848 L 318 813 Z" /><path d="M 584 736 L 689 736 L 689 851 L 598 851 L 598 780 L 568 866 L 692 866 L 666 1103 L 878 1220 L 858 1161 L 729 1161 L 729 1066 L 927 1066 L 927 1367 L 952 1194 L 1022 1194 L 1022 1336 L 1042 1189 L 937 1172 L 937 1070 L 1033 1070 L 1033 964 L 1485 964 L 1485 1048 L 1118 1048 L 1118 1725 L 1807 1725 L 1807 1671 L 1152 1671 L 1152 1070 L 1558 1070 L 1499 966 L 1010 966 L 1010 1048 L 683 1048 L 756 702 Z" /><path d="M 469 671 L 451 669 L 447 658 L 439 670 L 444 676 L 444 739 L 311 739 L 308 711 L 287 706 L 287 805 L 287 792 L 317 789 L 317 752 L 468 752 Z" /><path d="M 405 669 L 400 666 L 399 657 L 396 658 L 395 668 L 385 669 L 221 669 L 218 661 L 210 660 L 210 680 L 284 680 L 287 686 L 296 686 L 299 681 L 307 681 L 309 674 L 404 674 Z" /><path d="M 506 555 L 504 560 L 510 561 L 510 727 L 531 727 L 533 740 L 546 740 L 546 735 L 539 733 L 539 598 L 542 595 L 579 595 L 579 591 L 527 591 L 527 557 Z" /><path d="M 466 557 L 455 557 L 451 591 L 314 591 L 311 597 L 243 597 L 241 579 L 210 571 L 210 631 L 223 622 L 330 622 L 330 597 L 381 597 L 383 611 L 404 611 L 418 611 L 421 597 L 454 597 L 460 608 L 460 563 Z" /><path d="M 210 520 L 210 542 L 212 542 L 213 541 L 220 541 L 221 540 L 225 540 L 226 539 L 229 539 L 230 538 L 233 538 L 234 537 L 240 536 L 242 534 L 242 530 L 240 527 L 234 526 L 233 525 L 230 525 L 220 520 L 218 521 L 213 521 L 212 520 Z" /><path d="M 221 431 L 211 432 L 212 441 L 211 442 L 212 443 L 211 444 L 211 485 L 210 486 L 211 490 L 214 489 L 220 490 L 227 487 L 236 486 L 242 483 L 242 476 L 238 473 L 238 453 L 242 450 L 241 446 L 242 441 L 240 439 L 226 435 L 224 433 L 222 433 Z" /><path d="M 514 409 L 514 421 L 515 420 L 525 420 L 525 410 L 524 409 Z" /><path d="M 270 306 L 213 306 L 213 401 L 217 399 L 221 402 L 223 398 L 243 392 L 243 340 L 248 336 L 261 336 L 268 315 L 267 309 Z" /><path d="M 666 305 L 674 337 L 689 337 L 689 396 L 720 407 L 720 437 L 688 447 L 688 589 L 609 589 L 691 589 L 696 615 L 747 615 L 765 632 L 759 638 L 749 629 L 764 649 L 764 709 L 773 697 L 773 641 L 732 595 L 706 587 L 706 563 L 730 552 L 730 508 L 720 505 L 720 307 Z" /><path d="M 766 654 L 771 654 L 772 655 L 772 678 L 773 679 L 772 680 L 773 681 L 772 682 L 772 684 L 771 685 L 767 685 L 765 683 L 765 682 L 764 681 L 764 656 Z" /><path d="M 587 306 L 591 310 L 591 316 L 595 323 L 598 336 L 625 336 L 628 335 L 632 317 L 634 315 L 633 309 L 635 306 L 633 305 L 632 306 L 630 305 L 624 305 L 623 306 L 621 305 L 619 306 L 616 305 L 615 306 L 613 305 L 612 306 L 608 306 L 607 305 L 606 306 L 594 306 L 592 305 L 591 306 L 590 305 Z" /><path d="M 506 306 L 508 312 L 507 315 L 510 321 L 510 336 L 511 337 L 551 337 L 556 317 L 558 316 L 557 309 L 559 306 L 554 305 L 553 306 L 550 305 L 548 306 L 546 305 L 545 306 L 540 305 L 539 306 L 536 305 L 535 306 L 533 305 L 532 306 L 512 306 L 511 305 Z" /><path d="M 378 305 L 376 307 L 384 336 L 396 336 L 403 339 L 403 433 L 412 433 L 412 424 L 407 422 L 407 338 L 422 336 L 428 306 Z" /><path d="M 298 306 L 301 309 L 301 314 L 300 315 L 303 317 L 303 320 L 305 323 L 305 326 L 309 336 L 332 336 L 333 337 L 338 334 L 342 318 L 345 315 L 343 312 L 343 309 L 346 306 L 344 305 L 340 306 L 338 305 L 337 306 L 302 306 L 300 305 Z" />
    </svg>